<svg width="250" height="408" viewBox="0 0 250 408" fill="none" xmlns="http://www.w3.org/2000/svg">
<path d="M58.3 68.5679V0.805023H191.2V68.5679H177.8V136.331H198.4V204.094V271.857H200.5V339.62H207.7V407.383H74.8V339.62H67.6V271.857H65.6V204.094V136.331H45V68.5679H58.3Z" fill="#FBFBFB"/>
<path d="M58.3 68.5679H118.5L58.3 55.6132V68.5679Z" fill="#E6E6E6"/>
<path d="M191.2 49.2353H120L191.2 44.4521V49.2353Z" fill="#E6E6E6"/>
<path d="M177.8 68.5679H146.9L177.8 75.5435V68.5679Z" fill="#E6E6E6"/>
<path d="M58.3 10.7701H164.9L58.3 15.5534V10.7701Z" fill="#E6E6E6"/>
<path d="M191.2 28.7072H77.5L191.2 23.5253V28.7072Z" fill="#E6E6E6"/>
<path d="M45 82.3195H144.8L45 89.6937V82.3195Z" fill="#E6E6E6"/>
<path d="M65.6 136.331H198.4L65.6 149.086V136.331Z" fill="#E6E6E6"/>
<path d="M177.8 121.184H92.3L177.8 116.002V121.184Z" fill="#E6E6E6"/>
<path d="M45 107.033L82.8 112.215H45V107.033Z" fill="#E6E6E6"/>
<path d="M198.4 204.094L65.6 206.884L198.4 213.66V204.094Z" fill="#E6E6E6"/>
<path d="M198.4 156.859H113.8L198.4 162.639V156.859Z" fill="#E6E6E6"/>
<path d="M65.6 174.198L164.9 179.978L65.6 182.569V174.198Z" fill="#E6E6E6"/>
<path d="M65.6 194.727H118.5L65.6 199.909V194.727Z" fill="#E6E6E6"/>
<path d="M65.6 271.856H195.6L65.6 255.713V271.856Z" fill="#E6E6E6"/>
<path d="M198.4 232.594L144.8 236.182L198.4 239.37V232.594Z" fill="#E6E6E6"/>
<path d="M65.6 221.633L100 227.412H65.6V221.633Z" fill="#E6E6E6"/>
<path d="M200.5 287.601L160.2 290.79H200.5V287.601Z" fill="#E6E6E6"/>
<path d="M200.5 312.514L70 323.675H200.5V312.514Z" fill="#E6E6E6"/>
<path d="M207.7 339.62H79.7L207.7 352.176V339.62Z" fill="#E6E6E6"/>
<path d="M74.8 353.969H116.2L74.8 362.141V353.969Z" fill="#E6E6E6"/>
<path d="M207.7 376.291L121.9 384.064H207.7V376.291Z" fill="#E6E6E6"/>
<path d="M207.7 407.383L74.8 394.029V407.383H207.7Z" fill="#E6E6E6"/>
<path d="M229.1 384.064C234.7 384.064 239.3 381.075 242.8 375.096C249.5 363.536 249.2 345.001 249.2 344.204C249.2 342.41 248.4 340.816 247.4 340.816H228C227 340.816 226.2 342.41 226.2 344.403C226.2 346.396 227 347.99 228 347.99H245.5C245.3 353.172 244.3 363.137 240.4 369.914C236.5 376.69 230.5 378.683 222.6 375.893C221.6 375.494 220.7 376.889 220.5 378.683C220.3 380.676 221 382.47 221.9 382.868C224.5 383.466 226.9 384.064 229.1 384.064Z" fill="#E8462C"/>
<path d="M234.1 334.039H175C175 334.039 177.4 406.586 204.5 407.582C231.7 408.379 234.1 334.039 234.1 334.039Z" fill="#FF5B41"/>
<path d="M201 394.229C220.9 394.827 227.5 355.365 229.6 334.039H234.1C234.1 334.039 231.7 408.379 204.6 407.582C190.9 407.184 183.5 388.449 179.6 370.113C183.9 383.068 190.7 393.83 201 394.229Z" fill="#E8462C"/>
<path d="M137.4 275.643V230.003H27C48.1 245.349 66 271.458 89.5 281.025C106.1 287.602 121.9 283.217 137.4 275.643Z" fill="#7860DC"/>
<path d="M89.5 281.025C66 271.458 48.1 245.349 27 230.003H22.4V288.797H137.5V275.643C121.9 283.217 106.1 287.602 89.5 281.025Z" fill="#6A51D4"/>
<path d="M58.1 378.882C79.4 392.236 101.5 394.229 123.2 389.047V347.592H8.20001V348.987C25.5 348.19 42 369.316 58.1 378.882Z" fill="#FF5B41"/>
<path d="M58.1 378.882C42 369.316 25.5 348.19 8.20001 348.987V406.386H123.3V389.047C101.5 394.228 79.5 392.235 58.1 378.882Z" fill="#F23F22"/>
<path d="M115.1 335.036V288.797H8.5C21.8 295.773 34.4 313.71 47.7 322.878C69.7 336.032 92.6 339.819 115.1 335.036Z" fill="#FFA42F"/>
<path d="M47.7 322.878C34.4 313.71 21.8 295.773 8.5 288.797H0V347.592H115.1V335.036C92.6 339.819 69.7 336.032 47.7 322.878Z" fill="#FA9514"/>
<path d="M36.5 273.252C32.7 273.252 29.5 267.073 29.5 259.3C29.5 251.727 32.6 245.349 36.5 245.349C40.4 245.349 43.5 251.528 43.5 259.3C43.4 267.073 40.3 273.252 36.5 273.252Z" fill="white"/>
<path d="M14.2 332.046C10.4 332.046 7.20001 325.868 7.20001 318.095C7.20001 310.322 10.3 304.144 14.2 304.144C18.1 304.144 21.2 310.322 21.2 318.095C21.2 325.868 18 332.046 14.2 332.046Z" fill="white"/>
<path d="M22.3 390.84C18.5 390.84 15.3 384.662 15.3 376.889C15.3 369.116 18.4 362.938 22.3 362.938C26.1 362.938 29.3 369.116 29.3 376.889C29.3 384.662 26.2 390.84 22.3 390.84Z" fill="white"/>
</svg>
