<svg width="123" height="384" viewBox="0 0 123 384" fill="none" xmlns="http://www.w3.org/2000/svg">
<path d="M66.6305 152.698C72.68 126.769 71.9599 90.8679 61.5891 69.2132C104.512 69.7831 59.5726 364.401 59.5726 364.401H57.268C42.8642 297.157 50.7863 218.232 66.6305 152.698Z" fill="#00A138"/>
<path d="M61.5888 69.2132C61.5888 69.2132 61.7328 69.2132 61.5888 69.2132C71.9595 90.8679 72.6797 126.769 66.7741 152.698C50.93 218.232 43.0079 297.157 57.5557 364.686H55.2511C55.1071 364.686 18.3774 69.2132 61.5888 69.2132Z" fill="#6FD189"/>
<path d="M111.282 168.939C112.291 169.794 113.299 170.649 114.307 172.073C138.65 203.985 100.624 273.508 68.2151 250.999C68.2151 250.999 68.2151 250.714 68.3591 250.429C80.0262 248.719 91.2611 241.311 100.047 224.785C107.97 211.678 113.155 189.739 111.282 168.939Z" fill="#00A138"/>
<path d="M111.282 168.939C113.154 189.739 107.825 211.678 100.191 224.5C91.4048 241.026 80.1698 248.434 68.5027 250.144C70.3752 241.311 90.6846 152.698 111.282 168.939Z" fill="#6FD189"/>
<path d="M45.8891 147.854C46.4652 149.849 46.7533 151.273 46.7533 151.273V163.81C46.7533 163.81 -3.80399 131.898 0.229072 100.556C17.3696 98.2763 34.366 122.78 45.8891 147.854Z" fill="#6FD189"/>
<path d="M0.373474 100.556C0.805588 97.1366 1.81385 93.7175 3.68634 90.5832C20.5388 60.6656 41.4242 131.328 45.8894 147.854C34.3664 122.78 17.3699 98.2763 0.373474 100.556Z" fill="#00A138"/>
<path d="M12.6167 1.96994C14.3452 0.260359 16.3617 0.260359 18.8103 2.25487C35.8068 15.3617 14.2011 93.4325 14.2011 93.4325C14.0571 92.8627 13.769 92.2928 13.625 91.7229C17.658 62.945 22.2672 25.3342 12.6167 1.96994Z" fill="#00A138"/>
<path d="M12.616 1.96991C22.2666 25.3342 17.8014 62.66 13.4803 91.438C6.27837 70.6381 3.10954 11.3726 12.616 1.96991Z" fill="#6FD189"/>
<path d="M94.8619 286.9H22.2668C22.2668 286.9 21.2585 383.491 58.5643 383.491C95.8701 383.491 94.8619 286.9 94.8619 286.9Z" fill="#FFCC46"/>
<path d="M87.9482 286.9H95.0061C95.0061 286.9 96.0143 383.491 58.7086 383.491C57.5563 383.491 56.404 383.491 55.2516 383.206C88.9565 377.223 87.9482 286.9 87.9482 286.9Z" fill="#FFA42F"/>
<path d="M52.9473 85.7394C52.9473 87.1641 53.5235 88.3038 54.2437 88.3038C54.9639 88.3038 55.54 87.1641 55.54 85.7394C55.54 84.3148 54.9639 83.175 54.2437 83.175C53.5235 83.175 52.9473 84.3148 52.9473 85.7394Z" fill="#00A138"/>
<path d="M42.1444 157.827C42.1444 159.252 42.7206 160.676 43.5848 160.676C44.305 160.676 45.0252 159.536 45.0252 157.827C45.0252 156.402 44.449 154.978 43.5848 154.978C42.7206 154.978 42.1444 156.402 42.1444 157.827Z" fill="#00A138"/>
<path d="M20.8264 119.361C20.8264 120.216 21.1145 120.786 21.5466 120.786C21.9787 120.786 22.2668 120.216 22.2668 119.361C22.2668 118.507 21.9787 117.937 21.5466 117.937C21.2585 117.937 20.8264 118.507 20.8264 119.361Z" fill="#00A138"/>
<path d="M10.7438 22.1997C10.7438 23.0545 11.1759 23.9093 11.6081 23.9093C12.0402 23.9093 12.4723 23.0545 12.4723 22.1997C12.4723 21.3449 12.0402 20.4901 11.6081 20.4901C11.1759 20.4901 10.7438 21.06 10.7438 22.1997Z" fill="#00A138"/>
<path d="M64.6141 130.189C64.6141 131.329 65.0462 132.183 65.6223 132.183C66.1985 132.183 66.6306 131.329 66.6306 130.189C66.6306 129.049 66.1985 128.194 65.6223 128.194C65.0462 128.194 64.6141 129.049 64.6141 130.189Z" fill="#00A138"/>
<path d="M50.3541 205.41C50.3541 206.835 50.9303 207.975 51.6505 207.975C52.3707 207.975 52.9468 206.835 52.9468 205.41C52.9468 203.986 52.3707 202.846 51.6505 202.846C50.9303 202.846 50.3541 203.986 50.3541 205.41Z" fill="#00A138"/>
<path d="M46.8971 252.708C46.8971 254.133 47.1852 255.273 47.6173 255.273C48.0494 255.273 48.3375 254.133 48.3375 252.708C48.3375 251.284 48.0494 250.144 47.6173 250.144C47.1852 250.144 46.8971 251.284 46.8971 252.708Z" fill="#00A138"/>
<path d="M5.41486 116.797C5.41486 117.367 5.70293 117.937 5.99101 117.937C6.27908 117.937 6.56716 117.367 6.56716 116.797C6.56716 116.227 6.27908 115.657 5.99101 115.657C5.70293 115.657 5.41486 116.227 5.41486 116.797Z" fill="#00A138"/>
<path d="M106.673 178.057C107.23 178.057 107.681 177.164 107.681 176.063C107.681 174.961 107.23 174.068 106.673 174.068C106.116 174.068 105.665 174.961 105.665 176.063C105.665 177.164 106.116 178.057 106.673 178.057Z" fill="#00A138"/>
<path d="M92.5576 207.974C92.5576 209.399 93.1338 210.254 93.7099 210.254C94.2861 210.254 94.8622 209.114 94.8622 207.974C94.8622 206.549 94.2861 205.695 93.7099 205.695C93.1338 205.695 92.5576 206.549 92.5576 207.974Z" fill="#00A138"/>
<path d="M75.417 231.624C75.417 232.764 75.8491 233.619 76.4253 233.619C77.0014 233.619 77.4335 232.764 77.4335 231.624C77.4335 230.484 77.0014 229.63 76.4253 229.63C75.8491 229.63 75.417 230.484 75.417 231.624Z" fill="#00A138"/>
<path d="M102.928 214.813C102.928 217.377 104.224 219.372 105.809 219.372C107.393 219.372 108.689 217.377 108.689 214.813C108.689 212.248 107.393 210.254 105.809 210.254C104.224 210.254 102.928 212.248 102.928 214.813Z" fill="#00A138"/>
</svg>
