<svg width="237" height="344" viewBox="0 0 237 344" fill="none" xmlns="http://www.w3.org/2000/svg">
<path d="M153.56 16.0063C151.998 20.2512 154.258 30.0115 155.937 35.483C157.484 40.6096 166.685 66.3249 172.731 76.9287C172.492 76.4254 172.624 76.7703 172.838 77.087C170.727 100.645 156.536 115.089 151.735 96.6417C153.368 96.08 158.059 96.0271 159.84 91.5114C162.455 84.9525 159.246 72.5919 153.696 74.5016C150.186 75.7092 148.495 84.682 149.064 92.6821C146.88 94.2143 144.897 97.2382 143.467 101.828C141.674 107.519 145.443 110.125 145.165 105.537C145.704 103.205 147.366 99.706 149.745 97.7167C154.221 118.813 169.484 113.561 174.594 85.6543C174.236 96.9007 172.26 101.874 169.615 111.37C167.333 119.765 163.411 137.507 146.173 163.537C142.898 168.372 137.752 175.801 130.409 183.402C117.805 196.324 97.677 205.396 88.8797 206.667C58.0357 211.035 26.444 177.022 9.87095 137.842C20.5507 146.071 22.6165 145.555 25.9258 145.392C30.5663 144.967 32.6813 142.288 33.9607 139.115C34.9894 136.615 35.4838 133.323 35.7898 129.9C44.8978 122.083 48.7034 97.1613 56.873 96.3019C57.4695 96.2918 57.5764 96.4501 57.79 96.7669C59.0468 98.481 59.7396 102.341 59.9917 104.205C60.0169 104.392 59.9353 104.42 59.9605 104.606C59.8165 105.436 59.7036 105.866 59.8297 106.798C60.3087 110.341 63.0215 110.188 62.4151 103.176C62.2951 101.657 61.5207 97.825 60.4391 94.8797C58.6973 90.2102 56.5811 90.3529 54.4277 91.4841C53.147 92.1199 52.3247 92.9883 50.8436 94.6687C47.059 98.898 42.4201 115.13 36.1569 123.139C35.6189 114.738 29.7503 107.976 26.1242 115.273C23.408 121.086 26.1451 131.852 32.7386 131.34C31.6236 136.992 29.3886 138.152 26.4814 138.762C20.2588 140.122 18.6683 136.571 8.89492 132.519C9.2838 131.604 9.13253 130.486 9.03766 129.152C13.8278 114.039 14.1159 112.379 15.5189 105.067C17.7236 93.5752 19.586 75.7621 15.5801 64.4563C13.6558 59.069 10.302 58.2715 7.6999 66.1919C6.85973 68.8226 6.34007 71.9285 5.90203 75.0064C3.22337 93.1003 4.81901 106.797 6.22747 122.899C5.51554 118.265 3.16733 106.584 1.22978 99.8356C0.86483 98.4001 -0.449664 94.3641 -2.00902 90.4124C-3.72565 85.9294 -5.54185 83.2369 -7.94138 81.916C-16.6788 77.3118 -14.5927 117.378 4.3625 135.639C1.12444 152.755 -2.81829 167.186 -11.7669 167.338C-12.4451 167.376 -13.3369 167.097 -14.0908 166.576C-10.8164 159.205 -10.6078 149.376 -12.5898 141.667C-16.7423 126.119 -24.1063 130.409 -23.6521 147.034C-23.5367 151.678 -22.3457 159.855 -19.3723 166.052C-24.5757 171.159 -35.3452 171.743 -35.5991 191.344C-35.6829 199.569 -33.1718 197.924 -33.2799 195.229C-33.9238 175.937 -22.1544 178.327 -16.4625 170.514C-10.5122 177.248 -3.83367 171.048 -1.38027 167.081C1.32398 162.443 4.32225 155.557 7.23979 137.967C7.85686 141.267 12.4833 150.213 14.1302 153.549C14.1554 153.735 14.1807 153.922 14.1242 154.136C16.5963 174.946 15.0096 179.005 18.1282 224.18C19.7037 247.835 20.307 273.777 22.7078 277.634C25.2155 281.65 28.6266 271.5 30.2193 266.854C32.4902 262.169 48.0509 198.469 48.3641 196.995C51.3483 199.481 54.929 201.956 57.9443 204.041C59.6083 216.348 71.8219 302.886 76.6235 310.6C77.5034 312.054 78.7218 312.22 79.8884 309.477C82.8051 302.619 85.9718 268.551 86.5407 263.282C87.3159 256.38 87.4731 256.911 89.7352 234.473C89.8911 232.467 92.7378 211.193 92.7378 211.193C94.8036 210.678 97.6856 209.881 102.288 207.908C107.225 223.576 115.048 246.058 121.755 258.386C121.969 258.702 121.969 258.702 121.755 258.386C122.61 259.653 123.107 261.433 127.763 267.442C128.593 268.522 135.624 278.201 140.682 282.12C149.747 289.149 148.808 282.837 146.982 273.123C143.053 251.643 133.356 186.876 133.356 186.876C139.199 180.182 143.24 174.694 148.085 167.563C162.366 194.847 167.437 189.395 182.722 213.992C183.709 215.604 190.835 226.617 192.714 228.507C194.618 230.584 196.011 229.519 196.116 224.605C196.153 223.616 196.013 221.323 195.843 219.43C195.3 214.153 192.987 196.41 191.242 186.668C188.912 173.225 186.255 159.893 183.297 146.861C181.743 139.786 180.1 133.326 178.025 126.819C176.685 122.597 175.32 118.188 173.98 113.966C173.798 113.248 173.534 112.558 173.433 111.812C173.111 108.801 174.891 101.749 175.405 99.2304C175.749 97.3556 177.29 89.8004 176.661 87.6751C177.605 90.863 178.158 92.4288 179.108 95.0292C188.213 119.411 208.515 106.572 201.529 73.8503C198.759 60.9483 194.745 58.4266 191.714 63.177C189.537 66.6581 189.314 72.5891 190.008 78.9851C190.178 80.8778 191.497 81.7899 192.03 80.0454C192.312 78.9727 192.105 78.0685 191.764 74.283C191.232 65.2944 194.773 63.6858 196.651 65.5763C201.898 72.162 205.448 101.578 191.935 102.715C190.064 102.773 188.556 101.731 186.784 99.9985C182.324 96.0693 179.978 89.4611 177.008 77.6037C177.014 77.0162 176.857 76.4849 176.618 75.9817C176.461 75.4504 176.385 74.891 176.228 74.3596C177.903 58.9526 182.052 42.8895 181.993 24.7618C181.847 9.78614 178.426 -0.354848 175.149 1.94346C173.51 3.09261 172.439 7.16906 171.725 10.7321C170.44 17.0282 170.268 23.3321 170.221 30.5683C170.168 38.392 170.762 44.0422 171.552 54.3079C169.198 43.2143 166.184 32.9329 163.172 25.1879C162.883 24.3117 162.034 22.4572 161.236 20.9756C158.012 15.4502 155.259 11.5187 153.56 16.0063ZM158.6 85.4985C158.188 91.2992 153.421 90.7926 150.891 91.6632C150.154 73.5738 158.695 76.0988 158.6 85.4985ZM27.2695 119.952C28.0652 116.361 31.0348 114.949 33.1728 120.653C33.6446 122.247 33.689 123.207 33.4202 125.641C30.6138 126.997 26.6754 125.035 27.2695 119.952ZM6.83616 84.442C7.96399 66.8816 12.249 58.7725 14.6848 69.8379C18.1039 88.1756 9.4454 115.742 8.22959 120.649C6.84035 105.321 5.94467 97.4328 6.83616 84.442ZM-17.2826 163.186C-21.2295 156.738 -23.4974 142.493 -20.1029 136.642C-16.5068 132.282 -10.2993 151.026 -17.2826 163.186ZM5.50267 130.173C-20.1267 101.72 -10.0438 59.4176 1.59854 108.88C3.93949 118.612 4.72707 123.805 5.50267 130.173ZM37.428 203.294C37.4027 203.108 38.8536 191.095 38.8284 190.909C38.8032 190.723 38.778 190.536 38.6712 190.378C39.0541 190.051 39.3805 189.938 39.4429 189.136C39.4741 188.735 39.4237 188.362 39.3733 187.99C39.4801 188.148 39.587 188.306 39.6686 188.278C39.1442 194.508 38.4698 202.155 38.4386 202.556C38.0305 202.697 37.8109 202.968 37.428 203.294ZM34.6911 243.069C34.6659 242.883 34.6659 242.883 34.6911 243.069C34.7535 242.267 36.239 224.193 36.3014 223.391C36.5847 224.855 36.3014 223.391 36.8116 226.533C36.6484 226.589 36.5104 226.832 36.4792 227.233C35.686 235.897 35.6356 235.524 34.9732 241.996C34.9167 242.211 34.6911 243.069 34.6911 243.069ZM37.2967 229.488C37.3975 230.234 37.4732 230.794 37.7373 231.483C37.3988 232.771 37.142 234.03 36.8035 235.317C36.9343 233.126 37.1155 231.307 37.2967 229.488ZM33.942 239.424C33.8916 239.051 33.7595 238.706 33.7091 238.333C33.9753 230.826 34.8309 221.36 34.8309 221.36C34.8057 221.174 34.8057 221.174 34.7805 220.987C35.0002 220.717 35.2198 220.446 35.5211 220.147C35.004 228.326 34.6104 232.364 33.942 239.424ZM32.8916 236.078C32.5963 235.789 32.3514 235.873 32.1065 235.957C32.4617 230.371 32.6873 229.513 32.854 223.797C33.2117 223.283 33.5946 222.957 33.9523 222.443C33.2083 228.944 33.1027 231.322 32.8916 236.078ZM30.9771 237.712C30.7574 237.983 30.563 238.44 30.3433 238.711C30.5485 234.542 30.9288 229.143 31.1532 225.748C31.3728 225.477 31.5925 225.206 31.7305 224.964C31.4258 230.923 31.2314 231.38 30.9771 237.712ZM29.1826 240.866C28.9066 241.352 28.6305 241.837 28.3545 242.322C28.7899 234.172 28.5211 236.606 29.1199 228.399C29.4212 228.1 29.6972 227.615 29.9985 227.316C29.4874 234.907 29.3446 238.274 29.1826 240.866ZM27.2814 243.862C27.1998 243.89 26.9801 244.161 26.8985 244.189C26.7664 243.844 26.716 243.471 26.584 243.126C26.7519 239.946 26.4579 242.194 27.287 230.005C27.7203 230.051 27.7767 229.837 28.1032 229.724C27.7288 234.537 27.8609 234.881 27.2814 243.862ZM23.9998 249.284C24.0814 249.256 24.0814 249.256 23.9998 249.284V249.284ZM23.9621 274.275C23.8805 274.303 23.7988 274.331 23.7172 274.36C26.1737 251.463 23.9296 272.14 25.6745 257.88C25.8066 258.225 25.6745 257.88 25.8882 258.196C25.0446 266.487 24.8057 265.984 23.9621 274.275ZM24.8126 254.664C24.9698 255.195 24.8882 255.223 25.0203 255.568C24.1574 263.085 24.269 260.12 23.1878 270.444C23.1373 270.071 23.0869 269.698 23.1181 269.297C23.7937 264.186 23.6245 264.83 24.8126 254.664ZM22.7891 264.336C22.7446 263.376 22.6186 262.444 22.5741 261.483C23.3434 255.169 23.7442 253.08 24.0635 251.019C24.1139 251.392 24.1139 251.392 24.2711 251.923C23.0951 260.914 22.9139 262.732 22.7891 264.336ZM22.2199 256.336C22.0866 253.455 22.1502 255.189 22.0613 253.269C22.4502 252.354 22.5883 252.112 22.9771 251.197C22.7455 252.643 22.4515 254.891 22.2199 256.336ZM20.1098 218.62C20.2478 218.377 20.7675 215.271 20.7987 214.87C20.4987 217.705 20.4243 219.682 20.2995 221.286C20.1987 220.541 20.1542 219.58 20.1098 218.62ZM23.9927 210.064C24.3961 213.047 24.1692 211.369 24.4213 213.233L22.5362 235.933C21.7644 237.174 22.1221 236.661 21.5447 237.445C21.57 237.631 23.2798 216.163 23.9927 210.064ZM25.8036 239.882C25.6212 239.165 25.4639 238.633 25.2814 237.915C25.3943 237.486 26.005 228.105 26.011 227.517C26.0866 228.077 26.1622 228.636 26.4011 229.139C26.1024 234.511 25.9836 235.527 25.8036 239.882ZM25.0516 217.895C25.2281 219.2 25.4298 220.692 25.5247 222.025C25.2187 225.448 24.6763 233.44 24.5515 235.044C24.2874 234.355 24.0174 234.252 23.7725 234.337C24.9221 222.623 24.1721 229.711 25.0516 217.895ZM21.0525 232.541C20.9576 231.207 20.8627 229.874 20.7679 228.541C20.8986 226.349 21.1542 222.553 21.3102 220.548C21.3102 220.548 21.7914 215.895 22.6987 209.338C22.8367 209.095 23.0564 208.825 23.1944 208.582C22.3687 215.111 21.4076 226.955 21.0525 232.541ZM21.0987 212.035C21.0735 211.849 21.0735 211.849 21.1551 211.82L21.0987 212.035ZM19.8756 214.993C19.8252 214.62 19.8 214.433 19.8312 214.032C19.8876 213.818 20.0508 213.761 20.1072 213.547C19.9944 213.976 19.9632 214.377 19.8756 214.993ZM16.8144 158.87C17.028 159.187 17.2669 159.69 17.4806 160.007C17.4062 161.984 17.3438 162.786 17.2754 164.175C16.9152 159.616 16.9404 159.802 16.8144 158.87ZM19.5609 163.389C19.0964 163.744 18.6318 164.099 18.1673 164.454C18.2357 163.064 18.2921 162.85 18.3605 161.46C18.7878 162.094 19.1335 162.755 19.5609 163.389ZM18.1882 181.033C18.7091 180.464 19.1484 179.922 19.6946 179.539C18.9745 183.69 18.9001 185.667 18.5125 189.118C18.4044 186.423 18.2963 183.728 18.1882 181.033ZM20.236 182.28C20.38 181.45 20.7809 179.361 20.5168 178.671C20.8997 178.344 21.201 178.045 21.5839 177.719C21.4963 178.334 19.7202 192.995 19.9026 193.713C19.6266 194.198 19.2437 194.525 18.9676 195.01C19.7368 188.696 19.8544 185.143 20.236 182.28ZM22.7578 176.924C23.0591 176.626 23.3856 176.513 23.6868 176.214C23.0808 182.472 23.4625 179.609 22.3308 189.56C22.2744 189.775 22.2996 189.961 22.3248 190.148C21.9107 190.876 21.4714 191.417 21.0573 192.145C21.0573 192.145 22.6762 176.952 22.7578 176.924ZM24.8355 175.234C25.6013 174.58 25.6013 174.58 25.9278 174.468C25.5594 178.692 24.5274 186.853 24.5214 187.441C24.2201 187.739 23.7808 188.281 23.5611 188.551C24.6171 178.041 24.0543 182.723 24.8355 175.234ZM26.8509 174.345C27.1462 174.634 27.3851 175.137 27.6804 175.426C26.862 183.903 26.9496 183.288 26.4504 189.704C26.2427 188.8 25.9786 188.11 25.6581 187.635C26.7958 177.096 27.1654 175.408 26.8509 174.345ZM29.6346 177.876C29.4966 178.118 27.6209 194.57 27.5897 194.971C27.382 194.067 27.1995 193.349 27.0735 192.417C27.5128 191.875 27.5295 187.576 28.6983 176.637C29.0188 177.112 29.3141 177.4 29.6346 177.876ZM31.691 183.608C31.9431 185.472 32.2516 187.122 32.5037 188.987C32.3345 189.631 30.2896 206.726 30.1456 207.556C29.8118 205.72 29.8118 205.72 29.4781 203.883C30.1862 200.908 30.6901 191.367 31.691 183.608ZM33.0392 192.315C33.2217 193.033 33.3537 193.378 33.5422 193.508C32.4285 201.697 32.2473 203.516 31.6785 208.785C31.3772 209.084 31.2956 209.112 30.9127 209.439C31.3003 205.988 32.8076 193.761 33.0392 192.315ZM34.5721 193.544C35.1998 193.133 34.2708 193.843 34.955 193.217C34.0994 202.683 33.9434 204.688 33.7874 206.694C33.7874 206.694 33.1849 207.291 32.8836 207.59C33.6396 199.914 34.5721 193.544 34.5721 193.544ZM36.2105 192.395C36.9199 191.956 37.1396 191.685 37.7673 191.274C37.1793 195.769 36.6729 200.237 36.2481 204.676C35.7835 205.031 35.4823 205.33 35.0177 205.685C35.1425 204.081 35.5109 199.856 36.2105 192.395ZM41.4908 190.383C41.2724 193.19 40.5728 200.651 39.9224 205.949C39.7399 205.231 39.639 204.485 39.4002 203.982C39.7506 201.52 40.5869 191.28 40.7117 189.676C40.8186 189.834 41.4092 190.411 41.4908 190.383ZM40.974 211.831C40.848 210.899 40.9236 211.458 40.5899 209.622C40.9907 207.532 42.2651 194.215 42.4019 191.436C42.6972 191.724 42.9925 192.013 43.2061 192.33C43.313 192.488 42.2689 201.824 40.974 211.831ZM38.7011 187.44C38.6195 187.468 34.6836 190.579 34.0306 190.803C33.955 190.244 32.9153 183.186 32.8397 182.627C33.0341 182.17 32.9837 181.797 32.908 181.238C34.5982 182.998 34.8935 183.286 38.7011 187.44ZM31.0294 179.347C28.4589 200.136 30.6491 184.747 28.7794 200.611C28.5969 199.893 28.4709 198.961 28.2884 198.243C28.376 197.628 30.5145 179.329 30.5205 178.742C30.841 179.217 30.7341 179.058 31.0294 179.347ZM25.0851 172.026C24.4573 172.437 20.2202 175.846 18.0549 178.152C17.8639 172.949 17.7498 170.842 17.56 168.175C18.6019 167.036 19.669 166.084 20.8681 165.476C22.257 167.535 23.6963 169.967 25.0851 172.026ZM25.004 273.136C25.754 266.048 26.1429 265.134 26.8365 258.26C27.2194 257.934 27.2194 257.934 27.4954 257.448C26.6266 265.553 27.3202 258.679 25.945 271.251C25.7193 272.11 25.3616 272.623 25.004 273.136ZM31.3881 255.914C31.3065 255.942 31.3881 255.914 31.3881 255.914C31.3065 255.942 31.3881 255.914 31.3881 255.914ZM27.4441 267.808L27.3877 268.023C27.9253 263.155 28.4198 259.862 28.7629 255.451C29.039 254.966 28.8194 255.237 29.177 254.723C28.2578 262.455 28.0009 263.714 27.4441 267.808ZM29.062 263.349C29.5625 259.469 29.8877 256.82 30.3881 252.941C30.495 253.099 30.5454 253.472 30.6774 253.817C30.2838 257.855 29.883 259.944 29.6766 261.576C29.5073 262.22 29.2565 262.892 29.062 263.349ZM32.065 253.339C30.7505 249.303 30.2728 248.297 28.8108 250.751C27.9262 252.422 27.0104 254.493 26.3514 255.305C24.181 247.466 24.7378 243.371 21.8272 249.642C21.7191 246.947 21.611 244.252 21.4212 241.585C21.8353 240.857 23.3225 238.59 23.7366 237.862C26.0908 248.955 26.4053 250.018 29.6869 244.596C29.7685 244.568 29.8501 244.539 29.963 244.11C30.7912 242.655 31.4813 241.441 32.3095 239.986C32.9578 242.885 33.3672 245.281 33.7885 246.502C33.2244 248.647 32.6855 250.979 32.065 253.339ZM38.7586 227.034C36.8232 212.089 36.2087 213.861 33.5164 217.324C28.2699 224.008 30.6357 220.657 27.749 224.578C27.3575 220.419 25.5999 209.315 24.9888 205.428C24.9696 204.654 24.6551 203.591 24.2782 203.331C23.4175 202.651 22.3384 204.779 19.5214 209.846C19.262 206.032 19.1094 202.377 18.9317 198.535C21.2663 195.586 23.6381 191.647 25.0064 190.396C25.453 191.803 28.1469 204.146 28.9285 209.926C29.6909 214.933 30.4062 213.906 34.0216 210.321C39.7711 204.83 35.7981 208.929 38.3523 205.708C39.3151 209.67 39.8086 217.111 40.7509 217.762C40.0932 221.111 39.5232 223.844 38.7586 227.034ZM41.8539 213.285C42.4924 209.162 43.8557 197.765 44.1988 193.354C44.4125 193.671 44.601 193.801 44.8963 194.09C44.5963 196.925 44.1091 202.166 43.8655 204.787C43.4958 206.475 43.671 205.244 41.8539 213.285ZM45.583 198.537C45.6766 197.334 45.7954 196.317 45.9706 195.086C46.1591 195.217 46.2659 195.375 46.4544 195.505C46.0655 196.42 45.865 197.464 45.583 198.537ZM90.019 211.934L89.9938 211.747L90.0754 211.719C89.9938 211.747 90.019 211.934 90.019 211.934ZM86.9545 212.012C87.1994 211.928 87.4695 212.03 87.7143 211.946C88.2942 216.235 88.4143 217.755 88.4528 219.303C88.0134 219.844 88.0134 219.844 87.8502 219.9C87.5788 217.262 87.2259 214.651 86.9545 212.012ZM89.0707 211.87C89.5929 213.837 89.5438 216 89.0925 217.716C88.9532 215.423 88.7263 213.745 88.4742 211.88C88.6374 211.824 88.9075 211.926 89.0707 211.87ZM86.2763 212.051C86.6293 214.661 86.9006 217.3 87.1468 219.752C86.7699 219.491 86.7699 219.491 86.5562 219.175C86.5562 219.175 86.0891 214.457 85.843 212.005C86.0315 212.135 86.1131 212.107 86.2763 212.051ZM85.0016 212.099C85.0016 212.099 85.0832 212.071 85.0016 212.099C85.1721 213.992 85.4242 215.856 85.5947 217.749C84.9344 216.025 84.4182 213.471 85.0016 212.099ZM70.103 218.786C69.9193 215.532 69.8941 215.346 69.6779 209.956C69.8663 210.086 69.948 210.058 70.1364 210.189C70.5398 213.172 70.78 216.212 70.103 218.786ZM63.8933 208.239C63.8886 211.362 63.9908 214.645 64.1745 217.899C63.4386 215.615 62.9788 212.846 63.4673 210.141C63.4169 209.769 63.7301 208.295 63.8933 208.239ZM65.1108 219.138C64.933 215.296 64.8621 211.613 64.7912 207.93C64.9797 208.06 65.1429 208.004 65.3314 208.134C65.3314 208.134 65.7146 221.077 65.7399 221.263C65.2057 220.471 65.2057 220.471 64.9668 219.968C65.0232 219.753 65.0796 219.539 65.1108 219.138ZM66.2484 208.599C66.6001 208.673 66.8702 208.775 67.2219 208.85C67.4394 216.776 67.6544 219.629 67.8189 222.109C67.574 222.193 67.4108 222.249 66.6821 221.915C66.7193 220.926 66.3745 209.531 66.2484 208.599ZM68.139 209.315C68.3275 209.445 68.4091 209.417 68.5975 209.547C68.7057 212.242 68.7826 215.338 69.2941 221.016C69.156 221.259 68.8548 221.557 68.6915 221.614C68.5714 220.094 68.3877 216.84 68.139 209.315ZM73.8873 289.101C74.083 291.18 74.2091 292.112 74.801 295.226C74.6941 295.068 74.6125 295.096 74.5873 294.909C74.3292 293.632 74.1527 292.327 73.8946 291.05C73.9066 289.875 73.7373 290.518 73.8873 289.101ZM76.6975 295.354C76.2245 291.224 76.0732 290.105 75.7646 288.455C76.9458 289.609 77.8018 293.413 76.6975 295.354ZM74.9544 288.148C75.1561 289.64 75.2437 289.024 76.0385 296.166C75.8753 296.222 75.7685 296.064 75.6052 296.12C75.0386 293.193 74.736 290.955 74.4647 288.317C74.9292 287.962 74.7659 288.018 74.9544 288.148ZM83.6129 260.581C83.8266 260.898 84.0403 261.215 84.2539 261.532C84.2227 261.933 84.1663 262.147 84.1351 262.548C83.6574 261.542 83.6069 261.169 83.6129 260.581ZM84.6728 257.68C84.4591 257.363 84.2454 257.046 84.0569 256.916C84.195 256.673 84.5971 257.12 84.7039 257.279C84.6475 257.493 84.6728 257.68 84.6728 257.68ZM83.6117 258.045C84.039 258.678 84.039 258.678 84.4411 259.126C84.3847 259.34 84.4351 259.713 84.3787 259.928C84.2719 259.769 83.6561 259.005 83.5493 258.847C83.6057 258.632 83.5805 258.446 83.6117 258.045ZM84.8851 255.46C82.7425 252.88 81.804 259.838 83.5014 263.547C83.6334 263.892 83.7403 264.05 83.8723 264.395C81.3415 289.268 79.7731 304.833 77.5261 307.168C76.747 306.46 75.3808 299.515 75.0723 297.865C76.3603 299.178 77.5402 297.796 78.0287 295.091C78.1727 294.261 78.1595 292.9 77.983 291.594C77.7813 290.103 77.0958 288.192 76.348 287.083C75.5185 286.003 74.1117 285.706 73.4215 286.919C73.2271 287.376 73.2523 287.563 73.1959 287.777C71.5524 278.781 67.0132 255.95 60.231 205.791C61.0665 206.284 61.7951 206.619 62.6306 207.112C59.6348 219.071 68.5274 232.403 71.3851 220.687C71.8111 218.784 72.0235 216.564 71.8842 214.271C71.8962 213.096 71.7197 211.79 71.5432 210.485C75.3808 211.702 80.1222 212.022 83.89 212.091C83.2456 216.801 86.2887 224.145 88.6485 221.382C86.5399 236.743 87.5553 232.881 84.8851 255.46ZM130.84 266.188C130.896 265.973 130.978 265.945 131.034 265.731C130.978 265.945 131.003 266.132 130.946 266.346C130.946 266.346 130.946 266.346 130.84 266.188ZM134.224 240.046C134.335 237.08 134.297 235.532 134.891 230.449C134.885 231.037 135.058 238.002 135.215 238.534C135.479 239.223 135.969 239.055 136.012 237.479C135.999 236.117 135.972 233.395 136.004 232.993C136.023 233.767 136.189 238.784 136.346 239.315C135.831 239.297 135.285 239.68 134.224 240.046ZM119.879 248.299C119.797 248.327 119.797 248.327 119.879 248.299C120.13 247.627 121.42 240.743 121.645 239.885C121.283 243.522 121.408 241.918 121.014 245.957C120.518 246.712 120.186 247.412 119.879 248.299ZM124.198 234.128C124.795 234.118 125.391 234.108 125.963 233.911C125.743 234.182 125.656 234.798 125.486 235.441C124.946 235.237 124.827 236.253 124.044 238.67C124.194 237.252 124.168 237.066 124.206 236.077C124.212 235.49 123.866 234.828 123.565 235.127C123.207 235.64 122.693 238.159 122.468 239.017C122.505 238.028 122.886 235.165 122.76 234.233C124.77 233.932 124.443 234.044 124.198 234.128ZM136.086 222.232C136.111 222.419 136.162 222.792 136.187 222.978C136.074 223.407 136.119 224.368 136.113 224.955C135.528 223.79 135.429 225.581 135.278 226.999C135.203 226.439 134.989 226.122 134.826 226.179C135.353 225.022 135.604 224.35 136.086 222.232ZM134.023 227.821C134.079 227.606 134.217 227.364 134.299 227.336C134.268 227.737 134.124 228.567 134.118 229.154C134.149 228.753 134.073 228.194 134.023 227.821ZM130.817 233.802C130.553 233.113 130.038 233.095 129.894 233.925C129.605 233.049 129.008 233.059 128.782 233.917C128.532 234.589 128.388 235.419 128.137 236.091C127.935 234.599 127.344 234.021 126.956 234.936C126.773 234.218 126.748 234.032 126.534 233.715C127.187 233.49 130.069 232.694 132.511 229.902C132.423 230.518 132.392 230.919 132.304 231.534C131.613 230.211 131.08 231.956 130.817 233.802ZM120.841 238.991C121.071 235.009 120.304 233.126 118.355 240.822C118.379 238.472 118.428 236.309 117.674 235.787C118.139 235.432 120.644 234.375 121.812 234.169C121.58 235.614 120.954 238.562 120.841 238.991ZM115.855 238.755C116.08 237.897 116.714 236.898 117.154 236.357C116.897 237.616 116.715 239.435 116.647 240.824C116.383 240.135 116.119 239.445 115.855 238.755ZM120.031 238.684C119.863 241.864 119.343 244.97 119.162 246.789C118.923 246.286 118.659 245.596 118.42 245.093C118.796 242.817 119.36 240.671 120.031 238.684ZM122.902 241.599C122.752 243.017 122.752 243.017 122.639 243.446C122.558 243.474 122.558 243.474 122.501 243.689C122.589 243.073 122.733 242.243 122.902 241.599ZM125.212 238.463C125.149 239.265 125.213 240.999 125.395 241.717C124.767 242.128 124.441 242.241 124.058 242.568C124.064 241.98 124.961 239.135 125.212 238.463ZM126.003 237.996C126.065 237.194 126.153 236.578 126.322 235.934C126.347 236.121 126.366 236.895 126.36 237.482C126.16 238.527 125.979 240.346 126.35 241.194C126.268 241.222 126.105 241.278 126.023 241.306C126.111 240.69 125.971 238.397 126.003 237.996ZM127.196 237.975C127.308 237.546 127.34 237.145 127.453 236.716C127.724 239.355 127.454 239.253 127.442 240.428C127.279 240.484 127.197 240.512 127.034 240.568C127.228 240.111 127.215 238.749 127.196 237.975ZM129.417 235.455C129.468 235.828 129.518 236.201 129.538 236.975C129.419 237.991 129.325 239.194 129.395 240.341C128.88 240.323 128.61 240.221 128.365 240.305C128.352 238.944 129.079 236.742 129.417 235.455ZM130.291 237.496C130.348 237.281 130.323 237.095 130.379 236.88C130.474 238.214 130.399 240.191 130.914 240.208C131.455 240.413 131.253 238.921 131.327 236.944C131.421 235.741 131.571 234.324 131.853 233.251C132.029 234.556 131.956 239.069 131.97 240.431C130.965 240.581 131.291 240.469 130.261 240.433C130.293 240.032 130.311 238.27 130.291 237.496ZM132.84 234.863C132.964 233.259 133.002 232.27 133.377 229.994C133.396 230.768 133.307 239.581 133.571 240.27C133.326 240.354 133.081 240.439 132.755 240.551C132.74 236.653 132.902 234.061 132.84 234.863ZM136.924 227.798C136.975 228.171 137.025 228.544 136.994 228.945C136.899 227.612 137.228 232.572 137.373 234.279C137.393 235.052 137.361 235.453 137.707 236.115C137.839 236.46 138.084 236.376 138.197 235.947C138.222 236.133 138.247 236.32 138.272 236.506C138.103 237.15 137.199 238.046 136.98 238.317C137.067 237.701 136.918 228.386 136.924 227.798ZM141.901 258.284C141.794 258.126 141.605 257.996 141.442 258.052C141.473 257.651 141.479 257.063 141.347 256.718C141.429 256.69 141.485 256.476 141.567 256.448C141.724 256.979 141.8 257.538 141.901 258.284ZM138.397 258.904C138.56 258.848 138.723 258.792 138.943 258.521C138.805 258.764 138.667 259.007 138.554 259.436C138.529 259.249 138.504 259.063 138.397 258.904ZM136.445 261.527C136.451 260.94 136.457 260.352 136.3 259.821C136.927 259.41 136.683 259.494 137.336 259.269C137.028 260.156 136.696 260.856 136.445 261.527ZM134.675 262.332C134.134 262.127 133.689 263.256 133.382 264.142C133.306 263.583 133.312 262.995 133.155 262.464C134.115 261.353 134.335 261.082 135.126 260.615C134.931 261.072 134.844 261.688 134.675 262.332ZM135.623 262.396C135.592 262.797 135.41 264.615 135.298 265.044C135.329 264.643 135.278 264.27 135.31 263.869C135.341 263.468 135.454 263.039 135.623 262.396ZM134.915 265.371C134.915 265.371 134.94 265.558 134.915 265.371V265.371ZM132.058 266.354C132.001 266.569 131.889 266.998 131.832 267.212C131.869 266.224 132.013 265.394 132.239 264.536C132.183 264.75 132.007 265.981 132.058 266.354ZM133.377 267.266C133.603 266.408 133.797 265.951 134.13 265.251C133.785 267.126 133.798 268.487 133.755 270.063C133.648 269.905 133.46 269.775 133.353 269.616C133.309 268.656 133.34 268.255 133.377 267.266ZM137.776 261.264C137.162 263.037 136.02 265.967 136.404 268.176C136.103 268.475 135.965 268.717 135.582 269.044C136.02 265.966 135.807 265.65 137.776 261.264ZM139.898 260.534C140.093 260.077 140.206 259.648 140.482 259.163C140.1 262.026 138.99 264.554 139.574 265.719C139.33 265.804 139.11 266.074 138.947 266.13C139.429 264.013 139.774 262.138 139.898 260.534ZM139.652 258.082L139.734 258.054C139.734 258.054 139.734 258.054 139.652 258.082ZM141.556 260.159C141.6 261.119 141.439 263.712 141.646 264.616C141.075 264.813 140.912 264.869 140.365 265.252C140.792 263.349 140.44 263.275 141.556 260.159ZM142.36 261.053C142.467 261.212 142.467 261.212 142.492 261.398C142.675 262.116 142.801 263.048 142.983 263.766C142.6 264.093 142.519 264.121 142.437 264.149C142.412 263.962 142.329 261.454 142.36 261.053ZM131.272 189.154C131.499 190.832 132.255 196.426 132.482 198.104C129.697 205.307 124.984 210.246 120.778 213.254C120.778 213.254 120.56 205.328 120.61 203.165C121.989 211.472 121.688 211.77 122.366 211.732C122.774 211.592 122.572 210.1 122.452 208.58C121.96 203.676 121.89 202.529 121.833 200.207C122.374 202.948 122.904 206.864 123.282 209.661C123.433 210.78 124.168 210.527 124.016 209.408C123.795 207.142 123.316 203.599 123.082 199.972C123.391 201.623 124.524 207.477 124.524 207.477C124.889 208.913 125.435 208.53 125.391 207.569C125.176 204.716 124.59 201.015 124.237 198.404C124.759 200.371 125.609 204.762 125.76 205.881C125.937 207.186 126.395 207.419 126.59 206.961C126.866 206.476 126.21 201.628 126.084 200.696C125.883 199.204 125.763 197.684 125.617 195.978C125.567 195.605 125.623 195.39 125.573 195.018C126.315 196.714 126.875 200.228 126.642 199.138L126.668 199.324C127.108 201.319 127.348 204.359 127.92 204.162C128.654 203.909 127.654 200.936 127.143 195.258C127.218 195.817 127.168 195.444 127.092 194.885C127.615 196.852 127.861 199.304 128.138 201.355C128.214 201.914 128.34 202.847 128.553 203.164C128.874 203.639 129.232 203.125 129.131 202.379C128.809 199.368 128.432 199.107 128.342 194.65C129.262 200.188 129.15 203.153 129.885 202.901C130.538 202.676 129.997 202.472 129.968 194.676C130.321 197.286 130.303 199.049 130.9 199.039C131.333 199.085 131.371 198.096 131.326 197.136C131.301 196.949 131.276 196.763 131.25 196.577C131.647 197.611 132.255 196.426 131.859 195.391C131.708 194.273 131.122 190.571 130.864 189.294C130.945 189.266 131.109 189.21 131.272 189.154ZM108.785 216.795C108.582 212.767 108.894 208.757 109.338 205.091C109.439 205.837 109.49 206.21 109.559 207.357C109.094 218.445 111.406 220.382 110.344 207.477C110.376 207.076 110.382 206.489 110.413 206.088C110.867 209.444 110.641 210.302 110.693 213.212C110.731 214.76 110.952 217.025 111.473 216.456C111.831 215.942 111.724 215.784 111.685 214.236C111.564 210.18 111.451 210.609 111.656 206.44C111.687 206.039 111.662 205.853 111.693 205.452L112.804 216.193C110.77 216.307 110.148 216.131 108.785 216.795ZM106.94 206.307C106.971 205.906 106.971 205.906 107.028 205.691C107.367 206.94 107.507 209.234 107.658 210.353L107.683 210.539C107.683 210.539 107.829 212.246 108.076 217.234C107.994 217.262 107.994 217.262 107.913 217.29C107.781 216.946 107.755 216.759 107.623 216.414C107.61 215.053 107.47 210.223 106.94 206.307ZM107.844 205.411C108.089 205.326 108.334 205.242 108.553 204.971C108.435 205.988 108.316 207.004 108.222 208.207C108.178 207.247 108.077 206.501 107.844 205.411ZM106.781 213.972C106.674 213.814 106.649 213.627 106.598 213.254C106.529 212.108 106.541 210.933 106.578 209.944C106.641 211.678 106.711 212.825 106.781 213.972ZM110.788 203.812C110.87 203.784 111.033 203.728 111.115 203.7C111.058 203.914 111.052 204.502 110.996 204.716C110.814 203.998 110.814 203.998 110.788 203.812ZM117.908 199.606C117.933 199.793 117.876 200.007 117.876 200.007C117.876 200.007 117.851 199.821 117.908 199.606ZM115.147 204.459C115.046 203.713 114.87 202.408 114.687 201.69C115.014 201.578 115.233 201.307 115.56 201.195C115.441 202.211 115.24 203.256 115.147 204.459ZM113.357 204.489C113.458 205.235 114.147 214.755 114.355 215.659C113.702 215.884 114.192 215.715 113.62 215.912C113.417 211.884 113.409 207.399 113.357 204.489ZM114.544 205.057C115.017 209.187 115.081 210.921 115.352 213.56C115.478 214.492 116.075 214.482 116.056 213.708C116.062 213.121 116.011 212.748 115.936 212.188C115.538 208.617 115.675 205.838 116.144 202.36C116.844 208.168 116.59 214.5 117.494 213.604C117.795 213.305 117.694 212.559 117.593 211.813C117.41 208.559 117.353 208.773 117.307 205.277C117.319 204.102 117.337 202.339 117.318 201.565C117.785 206.283 118.304 213.91 118.706 214.357C117.589 214.937 116.151 215.041 115.064 215.22C115.051 213.859 114.428 211.146 114.544 205.057ZM116.652 200.429C116.652 200.429 116.677 200.615 116.652 200.429C116.652 200.429 116.677 200.615 116.652 200.429ZM118.81 209.443C118.69 207.923 118.475 205.07 118.574 200.743C118.801 202.421 119.723 213.032 119.987 213.722C119.905 213.75 119.905 213.75 119.987 213.722C119.686 214.02 119.359 214.133 119.114 214.217C119.252 213.974 118.861 209.816 118.81 209.443ZM121.787 209.98C122.749 224.675 121.787 209.98 121.787 209.98V209.98ZM121.837 197.083C122.001 197.027 122.082 196.999 122.22 196.756C122.164 196.971 122.234 198.118 122.259 198.304C122.152 198.146 121.969 197.428 121.837 197.083ZM122.93 196.317C123.011 196.289 123.093 196.261 123.093 196.261C123.143 196.634 123.169 196.82 123.219 197.193C123.169 196.82 123.062 196.662 122.93 196.317ZM125.936 193.917C126.018 193.889 126.156 193.646 126.238 193.618C126.207 194.019 126.257 194.392 126.307 194.765C126.175 194.42 126.043 194.075 125.936 193.917ZM127.142 192.721C127.305 192.665 127.361 192.451 127.524 192.395C127.468 192.609 127.462 193.197 127.431 193.598C127.38 193.225 127.355 193.038 127.142 192.721ZM129.138 191.059C129.132 191.646 129.108 193.996 129.102 194.584C128.976 193.652 128.692 192.188 128.29 191.741C128.592 191.442 128.918 191.33 129.138 191.059ZM124.625 194.954C124.619 195.541 124.644 195.727 124.789 197.434C124.581 196.529 124.424 195.998 124.242 195.28C124.405 195.224 124.568 195.168 124.625 194.954ZM120.99 197.765C120.953 198.754 121.092 201.047 121.137 202.008C121.01 201.075 120.62 199.453 120.212 199.594C119.804 199.734 119.862 202.056 119.9 203.604C119.888 204.779 119.863 204.593 119.876 205.954C119.409 201.236 119.39 200.462 119.025 199.027C119.653 198.616 120.362 198.176 120.99 197.765ZM112.697 202.765C112.634 203.567 112.642 205.516 112.661 206.29C112.459 204.798 112.415 203.838 112.126 202.962C112.151 203.148 112.615 202.793 112.697 202.765ZM104.466 206.963C105.038 206.766 105.584 206.383 106.073 206.215C105.867 207.847 105.692 209.078 105.674 210.841C105.309 209.405 104.888 208.184 104.466 206.963ZM108.806 220.105C108.944 219.863 108.919 219.676 108.893 219.49C111.21 218.302 123.527 222.846 132.98 202.421C134.02 209.479 134.329 211.129 135.475 218.345C134.712 224.071 131.775 227.619 129.207 229.478C124.568 232.44 117.427 230.799 115.163 237.432C112.919 231.57 112.233 229.659 108.806 220.105ZM120.514 249.836C120.984 248.894 120.928 249.108 121.179 248.437C121.556 248.697 121.643 248.082 121.812 247.438C126.638 239.533 133.549 247.693 138.89 239.806C140.112 247.582 140.414 249.819 141.082 253.492C138.113 257.441 132.694 257.159 130.01 265.107C125.624 259.201 123.858 256.882 120.514 249.836ZM146.49 281.488C144.286 282.246 137.023 274.013 135.603 272.355C135.496 272.196 135.389 272.038 135.282 271.88C138.935 267.305 142.081 267.199 143.474 266.134C145.099 274.356 146.696 279.856 146.49 281.488ZM176.484 134.375C176.427 134.589 176.346 134.617 176.208 134.86C176.214 134.273 176.22 133.685 176.226 133.098C176.408 133.815 176.484 134.375 176.484 134.375ZM174.695 136.941C174.567 130.936 174.622 128.185 174.582 124.101C175.098 126.656 174.916 125.938 175.432 128.492C175.433 131.028 175.435 133.565 175.436 136.101C174.997 136.643 175.135 136.4 174.695 136.941ZM173.695 120.699C173.918 128.037 173.706 130.257 173.898 137.996C173.597 138.295 173.239 138.808 172.938 139.107C173.173 132.001 173.292 130.985 173.274 119.478C173.406 119.823 173.563 120.354 173.695 120.699ZM176.27 158.06C176.899 160.186 177.188 161.062 177.477 161.938C177.032 163.067 176.674 163.58 176.097 164.364C176.228 162.173 176.226 159.636 176.27 158.06ZM175.368 164.03C175.399 163.629 175.224 164.86 175.463 165.363C175.244 165.634 174.942 165.932 174.748 166.39C174.846 162.063 174.809 163.051 174.798 153.493C175.087 154.369 175.27 155.087 175.559 155.963C175.559 155.963 175.399 163.629 175.368 164.03ZM171.816 193.352C172.139 185.63 172.207 184.241 172.331 180.101C172.62 180.977 172.853 182.067 173.142 182.944C173.112 185.881 173.108 189.005 172.996 191.97C172.638 192.484 172.362 192.969 172.005 193.482C171.923 193.51 171.841 193.538 171.816 193.352ZM173.822 185.442C174.111 186.318 174.136 186.504 174.979 188.946C174.979 188.946 173.793 190.916 173.711 190.944C173.822 185.442 173.749 189.955 173.822 185.442ZM173.018 147.276C173.357 148.525 173.672 149.587 174.012 150.837C174.048 160.581 173.987 163.92 173.869 167.472C172.576 169.283 173.072 168.527 172.658 169.255C173.253 153.439 172.857 152.405 173.018 147.276ZM172.645 117.352C172.632 129.26 172.223 140.134 172.223 140.134C171.614 141.319 171.816 142.811 172.338 144.778C172.244 145.981 172.24 149.104 172.228 150.279C172.205 155.166 172.425 154.895 171.805 170.524C170.562 172.708 170.764 174.2 171.676 177.789L171.037 192.644C170.635 192.197 170.233 191.75 169.856 191.49C170.086 187.508 170.312 186.649 169.885 186.016C170.788 185.119 170.078 183.022 169.449 180.897C169.612 180.841 169.668 180.626 169.618 180.253C169.602 173.819 169.852 170.611 169.895 169.035C169.895 169.035 170.032 166.256 170.162 164.064C171.593 162.011 173.068 160.918 171.006 155.773C171.012 155.186 171.409 132.218 171.251 131.687C171.998 130.259 172.28 129.186 171.362 126.185C171.362 126.185 171.285 123.089 171.563 114.407C171.72 114.939 172.513 117.008 172.645 117.352ZM168.354 189.86C168.417 189.058 168.617 188.013 168.297 187.538C168.679 187.211 169.037 186.698 169.42 186.371C169.352 187.76 169.283 189.15 169.215 190.539C168.863 190.465 168.568 190.176 168.354 189.86ZM167.091 188.733C167.556 188.378 167.556 188.378 167.694 188.135C167.663 188.537 167.632 188.938 167.6 189.339C167.468 188.994 167.28 188.863 167.091 188.733ZM168.952 179.117C168.744 178.212 168.455 177.336 168.272 176.618C168.365 172.879 168.42 170.128 168.7 166.519C169.058 166.006 168.7 166.519 169.472 165.278C169.279 168.271 169.018 172.654 168.952 179.117ZM167.536 174.335C167.197 173.086 166.668 171.706 166.41 170.429C166.492 170.401 167.709 168.031 167.765 167.816C167.66 170.194 167.617 171.77 167.536 174.335ZM168.666 148.578C168.534 148.233 168.327 147.329 168.195 146.984C168.18 143.086 168.26 140.522 168.341 137.957C168.617 137.472 168.893 136.987 169.144 136.315C168.701 142.516 168.615 145.668 168.666 148.578ZM167.459 144.7C167.144 143.638 166.566 141.885 166.566 141.885C166.735 141.242 167.343 140.056 167.538 139.599C167.52 141.362 167.432 141.977 167.459 144.7ZM169.859 135.288C169.834 135.102 169.834 135.102 169.809 134.915C170.06 134.243 170.417 133.73 170.668 133.058C170.368 149.163 170.757 134.979 170.321 153.863C169.503 151.607 169.792 152.483 169.371 151.262C169.391 141.303 169.859 135.288 169.859 135.288ZM170.415 128.657C170.415 128.657 170.44 128.844 170.415 128.657C170.415 128.657 170.44 128.844 170.415 128.657ZM170.568 158.851C170.568 158.851 170.593 159.038 170.568 158.851C170.512 159.066 170.512 159.066 170.568 158.851C170.593 159.038 170.568 158.851 170.568 158.851ZM170.723 117.038C170.699 119.388 170.631 120.777 170.575 123.528C169.865 121.431 170.179 122.494 169.626 120.928C170.046 119.613 170.41 118.512 170.723 117.038ZM160.733 144.868C160.931 152.02 160.871 168.627 160.042 180.816L159.533 180.211C159.948 168.75 160.261 167.276 160.206 146.025C160.652 144.896 160.482 145.539 160.733 144.868ZM158.678 178.944C158.736 170.533 159.105 166.308 159.096 148.553C159.234 148.311 159.428 147.853 159.566 147.611C159.539 168.89 158.892 179.261 158.892 179.261C158.785 179.102 158.678 178.944 158.678 178.944ZM157.314 177.071C157.683 172.847 157.887 155.409 157.879 150.923C158.017 150.681 158.211 150.224 158.349 149.981C158.38 160.313 157.955 178.022 157.955 178.022C157.742 177.705 157.528 177.388 157.314 177.071ZM149.766 164.838C152.163 161.086 154.34 157.605 156.718 153.079C156.633 158.767 156.537 168.167 156.164 175.516C152.984 170.951 151.52 168.332 149.766 164.838ZM161.059 182.027C161.776 170.267 161.957 155.179 161.593 143.011C164.56 136.526 166.554 132.327 168.892 123.717C169.182 124.593 170.075 127.408 170.308 128.499C169.423 130.169 167.059 136.056 166.557 137.4C164.663 142.345 165.159 141.589 166.36 146.054C167.587 150.705 167.795 151.61 168.556 154.08C168.575 154.854 168.651 155.413 168.977 155.301C169.135 155.832 170.216 158.777 170.292 159.337C169.878 160.064 167.337 164.646 167.45 164.217C163.773 171.141 164.771 169.042 168.741 183.873C168.138 184.47 166.651 186.738 165.533 187.318C162.505 183.872 162.373 183.527 161.059 182.027ZM183.775 161.137C183.876 161.883 184.034 162.414 184.134 163.16C183.779 168.746 183.062 177.969 182.845 183.313C182.813 183.714 182.721 187.453 182.671 187.08C182.696 187.267 182.614 187.295 182.696 187.267C182.69 187.854 182.596 189.057 182.602 188.47C182.434 191.65 181.618 205.2 181.494 206.804L181.387 206.646C181.669 205.573 183.24 171.078 183.775 161.137ZM186.999 177.395C186.231 186.246 184.849 210.138 184.831 211.901C184.699 211.556 184.51 211.425 184.378 211.081C184.453 209.104 184.502 206.94 184.576 204.963C184.445 207.155 186.294 174.711 186.306 173.536C186.483 174.841 186.741 176.118 186.999 177.395ZM183.203 209.338C183.285 209.31 185.501 170.105 185.475 169.919C185.501 170.105 185.501 170.105 185.526 170.292L183.727 203.109C183.708 202.335 183.504 209.04 183.442 209.842C183.417 209.655 183.31 209.497 183.203 209.338ZM182.216 207.727C183.774 182.603 183.648 181.671 183.648 181.671C183.648 181.671 183.648 181.671 183.622 181.484C183.648 181.671 184.321 171.487 184.676 165.901C184.701 166.087 184.726 166.274 184.777 166.647C182.916 200.266 182.478 203.343 182.455 208.23C182.43 208.043 182.323 207.885 182.216 207.727ZM193.729 224.645C193.729 224.645 193.811 224.617 193.729 224.645C193.729 224.645 193.811 224.617 193.729 224.645ZM193.729 224.645C192.573 223.677 186.433 214.276 185.579 213.009C185.832 204.141 187.441 181.927 187.54 180.136C188.926 187.855 193.826 217.782 193.729 224.645ZM183.133 157.65C183.096 158.639 182.99 161.017 183.028 160.028L180.67 205.136C179.017 202.388 175.517 197.347 173.638 195.457C177.378 190.267 177.165 189.951 176.033 186.632C174.347 181.748 172.755 175.661 172.554 174.17C173.582 171.669 177.392 167.626 178.584 165.07C179.889 162.084 179.236 162.309 176.191 152.428C175.877 151.366 173.568 143.769 173.392 142.464C174.634 140.28 177.981 139.128 177.891 134.671C178.677 137.328 179.382 140.012 180.005 142.725C180.622 146.025 183.194 154.312 183.133 157.65ZM172.647 21.3427C172.914 16.3721 173.639 9.09772 175.352 5.97158C177.661 2.83531 182.333 15.2779 178.773 40.115C176.701 54.4875 175.61 57.79 174.596 64.1883C173.802 46.3134 172.066 41.0564 172.647 21.3427ZM172.813 76.9006L172.787 76.7141C172.787 76.7141 172.787 76.7141 172.813 76.9006ZM171.37 66.8595C167.598 59.1808 159.851 39.7952 158.059 34.7528C156.745 30.7168 155.329 25.935 154.888 21.4037C154.704 18.1495 155.174 17.2071 156.651 18.6505C163.588 26.9964 168.548 51.0482 171.37 66.8595Z" fill="#EFE2DA"/>
<path d="M81.923 225.093C79.6014 217.693 74.1348 218.628 73.6925 230.509C73.2318 246.492 82.5199 249.465 83.0955 234.933C83.1499 234.728 83.2043 234.523 83.156 234.167C83.1681 233.046 83.2167 230.981 83.0474 229.736C83.0294 228.997 82.31 225.519 81.923 225.093ZM81.9166 230.494C80.6711 227.382 79.5162 225.542 78.0046 222.893C80.23 222.319 81.7656 227.567 81.9166 230.494ZM81.874 234.419C81.2875 233.129 79.1472 228.274 76.8738 223.651C76.9524 223.624 76.9524 223.624 77.031 223.598C78.0286 225.491 79.8063 227.677 81.9103 233.475C81.8559 233.68 81.9042 234.036 81.874 234.419ZM75.21 235.018C75.7179 236.334 76.3527 237.979 77.447 240.585C76.2558 239.688 75.494 237.714 75.21 235.018ZM78.7955 241.428C78.7471 241.072 75.0349 231.913 75.0349 231.913C75.0107 231.735 75.0954 231.147 75.0712 230.969C77.7375 237.879 77.7436 237.318 79.1341 241.498C78.9527 241.374 79.2127 241.471 78.7955 241.428ZM80.0291 240.82C78.7172 236.613 77.6651 234.925 75.3072 228.468C75.3375 228.086 75.3678 227.703 75.4222 227.498C80.4102 239.387 80.0836 240.615 80.6641 240.045C80.5311 240.276 80.2408 240.562 80.0291 240.82ZM80.9847 239.377C81.263 237.792 76.6256 227.274 75.9121 225.655C76.1299 224.836 75.9666 225.45 76.2085 224.809C78.2763 229.13 78.6089 229.762 80.725 234.439C81.4143 235.879 81.3357 235.906 81.3357 235.906C81.4626 236.235 81.5654 236.386 81.7468 236.51C81.4141 238.299 81.2266 238.736 80.9847 239.377Z" fill="#EFE2DA"/>
<path d="M69.0993 241.061C68.7623 238.577 67.9253 236.635 66.8715 235.51C63.1741 231.204 62.2331 248.422 66.8281 249.079C69.3455 249.519 69.7797 243.057 69.0993 241.061ZM67.3523 246.301C67.6657 243.78 67.7019 242.839 67.9852 240.7C68.0093 240.877 67.9852 240.7 68.0574 241.232C68.0151 242.732 68.587 245.136 67.3523 246.301ZM66.2028 237.224C66.0944 237.632 65.4555 243.793 65.3711 244.379C64.769 242.356 64.7755 236.969 66.2028 237.224ZM66.0816 245.992C66.377 242.735 66.9194 238.279 66.9194 238.279C67.2265 238.731 67.1242 238.58 67.4553 239.21C67.1662 239.494 66.6056 245.628 66.4429 246.24C66.184 246.143 66.2623 246.116 66.0816 245.992Z" fill="#EFE2DA"/>
<path d="M72.7297 253.291C71.0725 252.557 69.3006 255.206 68.8062 257.604C68.0948 260.819 68.1786 267.478 70.1307 272.198C71.4743 275.454 75.4033 277.826 76.6754 270.889C76.6513 270.712 76.7297 270.685 76.7056 270.508C77.3566 268.056 77.3629 265.082 76.875 262.091C76.3872 259.1 75.0075 254.37 72.7297 253.291ZM75.459 260.717C74.1273 258.758 72.9945 257.659 71.5543 256.108C72.6331 254.996 74.2842 256.289 75.459 260.717ZM70.8431 256.908C74.1874 260.409 75.9288 262.971 75.9288 262.971C76.0011 263.504 76.0975 264.214 76.0914 264.773C74.1391 262.469 72.2651 260.137 70.2042 258.241C70.367 257.628 70.6322 257.166 70.8431 256.908ZM70.1492 268.105C72.1015 270.41 71.0229 269.106 73.7404 272.821C72.047 273.029 70.9202 271.371 70.1492 268.105ZM74.8132 272.269C74.6806 272.5 74.6022 272.527 74.4455 272.58C74.3552 271.311 70.2939 266.755 69.8058 266.179C69.7336 265.646 69.7576 265.824 69.7396 265.087C70.2277 265.663 74.9518 271.479 75.0543 271.629C74.9759 271.656 74.8674 272.065 74.8132 272.269ZM75.6752 269.56C75.6752 269.56 75.5666 269.968 75.4039 270.581C74.3253 269.278 72.5297 266.92 69.6253 263.64C69.6313 263.081 69.5831 262.726 69.5892 262.166C72.7287 265.366 75.7837 269.151 75.7837 269.151C75.7837 269.151 75.7294 269.355 75.6752 269.56ZM76.0068 267.774C75.4223 266.488 70.433 261.135 69.6858 260.461C69.716 260.08 69.7461 259.698 69.8546 259.289C72.6386 261.681 75.1272 264.917 76.1274 266.247C76.0732 266.451 76.1756 266.602 76.0068 267.774Z" fill="#EFE2DA"/>
</svg>
