<svg width="203" height="311" viewBox="0 0 203 311" fill="none" xmlns="http://www.w3.org/2000/svg">
<path d="M153.56 15.0063C151.998 19.2512 154.258 29.0115 155.937 34.483C157.484 39.6096 166.685 65.3249 172.731 75.9287C172.492 75.4254 172.624 75.7703 172.838 76.087C170.727 99.6447 156.536 114.089 151.735 95.6417C153.368 95.08 158.059 95.0271 159.84 90.5114C162.455 83.9525 159.246 71.5919 153.696 73.5016C150.186 74.7092 148.495 83.682 149.064 91.6821C146.88 93.2143 144.897 96.2382 143.467 100.828C141.674 106.519 145.443 109.125 145.165 104.537C145.704 102.205 147.366 98.706 149.745 96.7167C154.221 117.813 169.484 112.561 174.594 84.6543C174.236 95.9007 172.26 100.874 169.615 110.37C167.333 118.765 163.411 136.507 146.173 162.537C142.898 167.372 137.752 174.801 130.409 182.402C117.805 195.324 97.677 204.396 88.8797 205.667C58.0357 210.035 26.444 176.022 9.87095 136.842C20.5507 145.071 22.6165 144.555 25.9258 144.392C30.5663 143.967 32.6813 141.288 33.9607 138.115C34.9894 135.615 35.4838 132.323 35.7898 128.9C44.8978 121.083 48.7034 96.1613 56.873 95.3019C57.4695 95.2918 57.5764 95.4501 57.79 95.7669C59.0468 97.481 59.7396 101.341 59.9917 103.205C60.0169 103.392 59.9353 103.42 59.9605 103.606C59.8165 104.436 59.7036 104.866 59.8297 105.798C60.3087 109.341 63.0215 109.188 62.4151 102.176C62.2951 100.657 61.5207 96.825 60.4391 93.8797C58.6973 89.2102 56.5811 89.3529 54.4277 90.4841C53.147 91.1199 52.3247 91.9883 50.8436 93.6687C47.059 97.898 42.4201 114.13 36.1569 122.139C35.6189 113.738 29.7503 106.976 26.1242 114.273C23.408 120.086 26.1451 130.852 32.7386 130.34C31.6236 135.992 29.3886 137.152 26.4814 137.762C20.2588 139.122 18.6683 135.571 8.89492 131.519C9.2838 130.604 9.13253 129.486 9.03766 128.152C13.8278 113.039 14.1159 111.379 15.5189 104.067C17.7236 92.5752 19.586 74.7621 15.5801 63.4563C13.6558 58.069 10.302 57.2715 7.6999 65.1919C6.85973 67.8226 6.34007 70.9285 5.90203 74.0064C3.22337 92.1003 4.81901 105.797 6.22747 121.899C5.51554 117.265 3.16733 105.584 1.22978 98.8356C0.86483 97.4001 -0.449664 93.3641 -2.00902 89.4124C-3.72565 84.9294 -5.54185 82.2369 -7.94138 80.916C-16.6788 76.3118 -14.5927 116.378 4.3625 134.639C1.12444 151.755 -2.81829 166.186 -11.7669 166.338C-12.4451 166.376 -13.3369 166.097 -14.0908 165.576C-10.8164 158.205 -10.6078 148.376 -12.5898 140.667C-16.7423 125.119 -24.1063 129.409 -23.6521 146.034C-23.5367 150.678 -22.3457 158.855 -19.3723 165.052C-24.5757 170.159 -35.3452 170.743 -35.5991 190.344C-35.6829 198.569 -33.1718 196.924 -33.2799 194.229C-33.9238 174.937 -22.1544 177.327 -16.4625 169.514C-10.5122 176.248 -3.83367 170.048 -1.38027 166.081C1.32398 161.443 4.32225 154.557 7.23979 136.967C7.85686 140.267 12.4833 149.213 14.1302 152.549C14.1554 152.735 14.1807 152.922 14.1242 153.136C16.5963 173.946 15.0096 178.005 18.1282 223.18C19.7037 246.835 20.307 272.777 22.7078 276.634C25.2155 280.65 28.6266 270.5 30.2193 265.854C32.4902 261.169 48.0509 197.469 48.3641 195.995C51.3483 198.481 54.929 200.956 57.9443 203.041C59.6083 215.348 71.8219 301.886 76.6235 309.6C77.5034 311.054 78.7218 311.22 79.8884 308.477C82.8051 301.619 85.9718 267.551 86.5407 262.282C87.3159 255.38 87.4731 255.911 89.7352 233.473C89.8911 231.467 92.7378 210.193 92.7378 210.193C94.8036 209.678 97.6856 208.881 102.288 206.908C107.225 222.576 115.048 245.058 121.755 257.386C121.969 257.702 121.969 257.702 121.755 257.386C122.61 258.653 123.107 260.433 127.763 266.442C128.593 267.522 135.624 277.201 140.682 281.12C149.747 288.149 148.808 281.837 146.982 272.123C143.053 250.643 133.356 185.876 133.356 185.876C139.199 179.182 143.24 173.694 148.085 166.563C162.366 193.847 167.437 188.395 182.722 212.992C183.709 214.604 190.835 225.617 192.714 227.507C194.618 229.584 196.011 228.519 196.116 223.605C196.153 222.616 196.013 220.323 195.843 218.43C195.3 213.153 192.987 195.41 191.242 185.668C188.912 172.225 186.255 158.893 183.297 145.861C181.743 138.786 180.1 132.326 178.025 125.819C176.685 121.597 175.32 117.188 173.98 112.966C173.798 112.248 173.534 111.558 173.433 110.812C173.111 107.801 174.891 100.749 175.405 98.2304C175.749 96.3556 177.29 88.8004 176.661 86.6751C177.605 89.863 178.158 91.4288 179.108 94.0292C188.213 118.411 208.515 105.572 201.529 72.8503C198.759 59.9483 194.745 57.4266 191.714 62.177C189.537 65.6581 189.314 71.5891 190.008 77.9851C190.178 79.8778 191.497 80.7899 192.03 79.0454C192.312 77.9727 192.105 77.0685 191.764 73.283C191.232 64.2944 194.773 62.6858 196.651 64.5763C201.898 71.162 205.448 100.578 191.935 101.715C190.064 101.773 188.556 100.731 186.784 98.9985C182.324 95.0693 179.978 88.4611 177.008 76.6037C177.014 76.0162 176.857 75.4849 176.618 74.9817C176.461 74.4504 176.385 73.891 176.228 73.3596C177.903 57.9526 182.052 41.8895 181.993 23.7618C181.847 8.78614 178.426 -1.35485 175.149 0.943459C173.51 2.09261 172.439 6.16906 171.725 9.73214C170.44 16.0282 170.268 22.3321 170.221 29.5683C170.168 37.392 170.762 43.0422 171.552 53.3079C169.198 42.2143 166.184 31.9329 163.172 24.1879C162.883 23.3117 162.034 21.4572 161.236 19.9756C158.012 14.4502 155.259 10.5187 153.56 15.0063ZM158.6 84.4985C158.188 90.2992 153.421 89.7926 150.891 90.6632C150.154 72.5738 158.695 75.0988 158.6 84.4985ZM27.2695 118.952C28.0652 115.361 31.0348 113.949 33.1728 119.653C33.6446 121.247 33.689 122.207 33.4202 124.641C30.6138 125.997 26.6754 124.035 27.2695 118.952ZM6.83616 83.442C7.96399 65.8816 12.249 57.7725 14.6848 68.8379C18.1039 87.1756 9.4454 114.742 8.22959 119.649C6.84035 104.321 5.94467 96.4328 6.83616 83.442ZM-17.2826 162.186C-21.2295 155.738 -23.4974 141.493 -20.1029 135.642C-16.5068 131.282 -10.2993 150.026 -17.2826 162.186ZM5.50267 129.173C-20.1267 100.72 -10.0438 58.4176 1.59854 107.88C3.93949 117.612 4.72707 122.805 5.50267 129.173ZM37.428 202.294C37.4027 202.108 38.8536 190.095 38.8284 189.909C38.8032 189.723 38.778 189.536 38.6712 189.378C39.0541 189.051 39.3805 188.938 39.4429 188.136C39.4741 187.735 39.4237 187.362 39.3733 186.99C39.4801 187.148 39.587 187.306 39.6686 187.278C39.1442 193.508 38.4698 201.155 38.4386 201.556C38.0305 201.697 37.8109 201.968 37.428 202.294ZM34.6911 242.069C34.6659 241.883 34.6659 241.883 34.6911 242.069C34.7535 241.267 36.239 223.193 36.3014 222.391C36.5847 223.855 36.3014 222.391 36.8116 225.533C36.6484 225.589 36.5104 225.832 36.4792 226.233C35.686 234.897 35.6356 234.524 34.9732 240.996C34.9167 241.211 34.6911 242.069 34.6911 242.069ZM37.2967 228.488C37.3975 229.234 37.4732 229.794 37.7373 230.483C37.3988 231.771 37.142 233.03 36.8035 234.317C36.9343 232.126 37.1155 230.307 37.2967 228.488ZM33.942 238.424C33.8916 238.051 33.7595 237.706 33.7091 237.333C33.9753 229.826 34.8309 220.36 34.8309 220.36C34.8057 220.174 34.8057 220.174 34.7805 219.987C35.0002 219.717 35.2198 219.446 35.5211 219.147C35.004 227.326 34.6104 231.364 33.942 238.424ZM32.8916 235.078C32.5963 234.789 32.3514 234.873 32.1065 234.957C32.4617 229.371 32.6873 228.513 32.854 222.797C33.2117 222.283 33.5946 221.957 33.9523 221.443C33.2083 227.944 33.1027 230.322 32.8916 235.078ZM30.9771 236.712C30.7574 236.983 30.563 237.44 30.3433 237.711C30.5485 233.542 30.9288 228.143 31.1532 224.748C31.3728 224.477 31.5925 224.206 31.7305 223.964C31.4258 229.923 31.2314 230.38 30.9771 236.712ZM29.1826 239.866C28.9066 240.352 28.6305 240.837 28.3545 241.322C28.7899 233.172 28.5211 235.606 29.1199 227.399C29.4212 227.1 29.6972 226.615 29.9985 226.316C29.4874 233.907 29.3446 237.274 29.1826 239.866ZM27.2814 242.862C27.1998 242.89 26.9801 243.161 26.8985 243.189C26.7664 242.844 26.716 242.471 26.584 242.126C26.7519 238.946 26.4579 241.194 27.287 229.005C27.7203 229.051 27.7767 228.837 28.1032 228.724C27.7288 233.537 27.8609 233.881 27.2814 242.862ZM23.9998 248.284C24.0814 248.256 24.0814 248.256 23.9998 248.284V248.284ZM23.9621 273.275C23.8805 273.303 23.7988 273.331 23.7172 273.36C26.1737 250.463 23.9296 271.14 25.6745 256.88C25.8066 257.225 25.6745 256.88 25.8882 257.196C25.0446 265.487 24.8057 264.984 23.9621 273.275ZM24.8126 253.664C24.9698 254.195 24.8882 254.223 25.0203 254.568C24.1574 262.085 24.269 259.12 23.1878 269.444C23.1373 269.071 23.0869 268.698 23.1181 268.297C23.7937 263.186 23.6245 263.83 24.8126 253.664ZM22.7891 263.336C22.7446 262.376 22.6186 261.444 22.5741 260.483C23.3434 254.169 23.7442 252.08 24.0635 250.019C24.1139 250.392 24.1139 250.392 24.2711 250.923C23.0951 259.914 22.9139 261.732 22.7891 263.336ZM22.2199 255.336C22.0866 252.455 22.1502 254.189 22.0613 252.269C22.4502 251.354 22.5883 251.112 22.9771 250.197C22.7455 251.643 22.4515 253.891 22.2199 255.336ZM20.1098 217.62C20.2478 217.377 20.7675 214.271 20.7987 213.87C20.4987 216.705 20.4243 218.682 20.2995 220.286C20.1987 219.541 20.1542 218.58 20.1098 217.62ZM23.9927 209.064C24.3961 212.047 24.1692 210.369 24.4213 212.233L22.5362 234.933C21.7644 236.174 22.1221 235.661 21.5447 236.445C21.57 236.631 23.2798 215.163 23.9927 209.064ZM25.8036 238.882C25.6212 238.165 25.4639 237.633 25.2814 236.915C25.3943 236.486 26.005 227.105 26.011 226.517C26.0866 227.077 26.1622 227.636 26.4011 228.139C26.1024 233.511 25.9836 234.527 25.8036 238.882ZM25.0516 216.895C25.2281 218.2 25.4298 219.692 25.5247 221.025C25.2187 224.448 24.6763 232.44 24.5515 234.044C24.2874 233.355 24.0174 233.252 23.7725 233.337C24.9221 221.623 24.1721 228.711 25.0516 216.895ZM21.0525 231.541C20.9576 230.207 20.8627 228.874 20.7679 227.541C20.8986 225.349 21.1542 221.553 21.3102 219.548C21.3102 219.548 21.7914 214.895 22.6987 208.338C22.8367 208.095 23.0564 207.825 23.1944 207.582C22.3687 214.111 21.4076 225.955 21.0525 231.541ZM21.0987 211.035C21.0735 210.849 21.0735 210.849 21.1551 210.82L21.0987 211.035ZM19.8756 213.993C19.8252 213.62 19.8 213.433 19.8312 213.032C19.8876 212.818 20.0508 212.761 20.1072 212.547C19.9944 212.976 19.9632 213.377 19.8756 213.993ZM16.8144 157.87C17.028 158.187 17.2669 158.69 17.4806 159.007C17.4062 160.984 17.3438 161.786 17.2754 163.175C16.9152 158.616 16.9404 158.802 16.8144 157.87ZM19.5609 162.389C19.0964 162.744 18.6318 163.099 18.1673 163.454C18.2357 162.064 18.2921 161.85 18.3605 160.46C18.7878 161.094 19.1335 161.755 19.5609 162.389ZM18.1882 180.033C18.7091 179.464 19.1484 178.922 19.6946 178.539C18.9745 182.69 18.9001 184.667 18.5125 188.118C18.4044 185.423 18.2963 182.728 18.1882 180.033ZM20.236 181.28C20.38 180.45 20.7809 178.361 20.5168 177.671C20.8997 177.344 21.201 177.045 21.5839 176.719C21.4963 177.334 19.7202 191.995 19.9026 192.713C19.6266 193.198 19.2437 193.525 18.9676 194.01C19.7368 187.696 19.8544 184.143 20.236 181.28ZM22.7578 175.924C23.0591 175.626 23.3856 175.513 23.6868 175.214C23.0808 181.472 23.4625 178.609 22.3308 188.56C22.2744 188.775 22.2996 188.961 22.3248 189.148C21.9107 189.876 21.4714 190.417 21.0573 191.145C21.0573 191.145 22.6762 175.952 22.7578 175.924ZM24.8355 174.234C25.6013 173.58 25.6013 173.58 25.9278 173.468C25.5594 177.692 24.5274 185.853 24.5214 186.441C24.2201 186.739 23.7808 187.281 23.5611 187.551C24.6171 177.041 24.0543 181.723 24.8355 174.234ZM26.8509 173.345C27.1462 173.634 27.3851 174.137 27.6804 174.426C26.862 182.903 26.9496 182.288 26.4504 188.704C26.2427 187.8 25.9786 187.11 25.6581 186.635C26.7958 176.096 27.1654 174.408 26.8509 173.345ZM29.6346 176.876C29.4966 177.118 27.6209 193.57 27.5897 193.971C27.382 193.067 27.1995 192.349 27.0735 191.417C27.5128 190.875 27.5295 186.576 28.6983 175.637C29.0188 176.112 29.3141 176.4 29.6346 176.876ZM31.691 182.608C31.9431 184.472 32.2516 186.122 32.5037 187.987C32.3345 188.631 30.2896 205.726 30.1456 206.556C29.8118 204.72 29.8118 204.72 29.4781 202.883C30.1862 199.908 30.6901 190.367 31.691 182.608ZM33.0392 191.315C33.2217 192.033 33.3537 192.378 33.5422 192.508C32.4285 200.697 32.2473 202.516 31.6785 207.785C31.3772 208.084 31.2956 208.112 30.9127 208.439C31.3003 204.988 32.8076 192.761 33.0392 191.315ZM34.5721 192.544C35.1998 192.133 34.2708 192.843 34.955 192.217C34.0994 201.683 33.9434 203.688 33.7874 205.694C33.7874 205.694 33.1849 206.291 32.8836 206.59C33.6396 198.914 34.5721 192.544 34.5721 192.544ZM36.2105 191.395C36.9199 190.956 37.1396 190.685 37.7673 190.274C37.1793 194.769 36.6729 199.237 36.2481 203.676C35.7835 204.031 35.4823 204.33 35.0177 204.685C35.1425 203.081 35.5109 198.856 36.2105 191.395ZM41.4908 189.383C41.2724 192.19 40.5728 199.651 39.9224 204.949C39.7399 204.231 39.639 203.485 39.4002 202.982C39.7506 200.52 40.5869 190.28 40.7117 188.676C40.8186 188.834 41.4092 189.411 41.4908 189.383ZM40.974 210.831C40.848 209.899 40.9236 210.458 40.5899 208.622C40.9907 206.532 42.2651 193.215 42.4019 190.436C42.6972 190.724 42.9925 191.013 43.2061 191.33C43.313 191.488 42.2689 200.824 40.974 210.831ZM38.7011 186.44C38.6195 186.468 34.6836 189.579 34.0306 189.803C33.955 189.244 32.9153 182.186 32.8397 181.627C33.0341 181.17 32.9837 180.797 32.908 180.238C34.5982 181.998 34.8935 182.286 38.7011 186.44ZM31.0294 178.347C28.4589 199.136 30.6491 183.747 28.7794 199.611C28.5969 198.893 28.4709 197.961 28.2884 197.243C28.376 196.628 30.5145 178.329 30.5205 177.742C30.841 178.217 30.7341 178.058 31.0294 178.347ZM25.0851 171.026C24.4573 171.437 20.2202 174.846 18.0549 177.152C17.8639 171.949 17.7498 169.842 17.56 167.175C18.6019 166.036 19.669 165.084 20.8681 164.476C22.257 166.535 23.6963 168.967 25.0851 171.026ZM25.004 272.136C25.754 265.048 26.1429 264.134 26.8365 257.26C27.2194 256.934 27.2194 256.934 27.4954 256.448C26.6266 264.553 27.3202 257.679 25.945 270.251C25.7193 271.11 25.3616 271.623 25.004 272.136ZM31.3881 254.914C31.3065 254.942 31.3881 254.914 31.3881 254.914C31.3065 254.942 31.3881 254.914 31.3881 254.914ZM27.4441 266.808L27.3877 267.023C27.9253 262.155 28.4198 258.862 28.7629 254.451C29.039 253.966 28.8194 254.237 29.177 253.723C28.2578 261.455 28.0009 262.714 27.4441 266.808ZM29.062 262.349C29.5625 258.469 29.8877 255.82 30.3881 251.941C30.495 252.099 30.5454 252.472 30.6774 252.817C30.2838 256.855 29.883 258.944 29.6766 260.576C29.5073 261.22 29.2565 261.892 29.062 262.349ZM32.065 252.339C30.7505 248.303 30.2728 247.297 28.8108 249.751C27.9262 251.422 27.0104 253.493 26.3514 254.305C24.181 246.466 24.7378 242.371 21.8272 248.642C21.7191 245.947 21.611 243.252 21.4212 240.585C21.8353 239.857 23.3225 237.59 23.7366 236.862C26.0908 247.955 26.4053 249.018 29.6869 243.596C29.7685 243.568 29.8501 243.539 29.963 243.11C30.7912 241.655 31.4813 240.441 32.3095 238.986C32.9578 241.885 33.3672 244.281 33.7885 245.502C33.2244 247.647 32.6855 249.979 32.065 252.339ZM38.7586 226.034C36.8232 211.089 36.2087 212.861 33.5164 216.324C28.2699 223.008 30.6357 219.657 27.749 223.578C27.3575 219.419 25.5999 208.315 24.9888 204.428C24.9696 203.654 24.6551 202.591 24.2782 202.331C23.4175 201.651 22.3384 203.779 19.5214 208.846C19.262 205.032 19.1094 201.377 18.9317 197.535C21.2663 194.586 23.6381 190.647 25.0064 189.396C25.453 190.803 28.1469 203.146 28.9285 208.926C29.6909 213.933 30.4062 212.906 34.0216 209.321C39.7711 203.83 35.7981 207.929 38.3523 204.708C39.3151 208.67 39.8086 216.111 40.7509 216.762C40.0932 220.111 39.5232 222.844 38.7586 226.034ZM41.8539 212.285C42.4924 208.162 43.8557 196.765 44.1988 192.354C44.4125 192.671 44.601 192.801 44.8963 193.09C44.5963 195.925 44.1091 201.166 43.8655 203.787C43.4958 205.475 43.671 204.244 41.8539 212.285ZM45.583 197.537C45.6766 196.334 45.7954 195.317 45.9706 194.086C46.1591 194.217 46.2659 194.375 46.4544 194.505C46.0655 195.42 45.865 196.464 45.583 197.537ZM90.019 210.934L89.9938 210.747L90.0754 210.719C89.9938 210.747 90.019 210.934 90.019 210.934ZM86.9545 211.012C87.1994 210.928 87.4695 211.03 87.7143 210.946C88.2942 215.235 88.4143 216.755 88.4528 218.303C88.0134 218.844 88.0134 218.844 87.8502 218.9C87.5788 216.262 87.2259 213.651 86.9545 211.012ZM89.0707 210.87C89.5929 212.837 89.5438 215 89.0925 216.716C88.9532 214.423 88.7263 212.745 88.4742 210.88C88.6374 210.824 88.9075 210.926 89.0707 210.87ZM86.2763 211.051C86.6293 213.661 86.9006 216.3 87.1468 218.752C86.7699 218.491 86.7699 218.491 86.5562 218.175C86.5562 218.175 86.0891 213.457 85.843 211.005C86.0315 211.135 86.1131 211.107 86.2763 211.051ZM85.0016 211.099C85.0016 211.099 85.0832 211.071 85.0016 211.099C85.1721 212.992 85.4242 214.856 85.5947 216.749C84.9344 215.025 84.4182 212.471 85.0016 211.099ZM70.103 217.786C69.9193 214.532 69.8941 214.346 69.6779 208.956C69.8663 209.086 69.948 209.058 70.1364 209.189C70.5398 212.172 70.78 215.212 70.103 217.786ZM63.8933 207.239C63.8886 210.362 63.9908 213.645 64.1745 216.899C63.4386 214.615 62.9788 211.846 63.4673 209.141C63.4169 208.769 63.7301 207.295 63.8933 207.239ZM65.1108 218.138C64.933 214.296 64.8621 210.613 64.7912 206.93C64.9797 207.06 65.1429 207.004 65.3314 207.134C65.3314 207.134 65.7146 220.077 65.7399 220.263C65.2057 219.471 65.2057 219.471 64.9668 218.968C65.0232 218.753 65.0796 218.539 65.1108 218.138ZM66.2484 207.599C66.6001 207.673 66.8702 207.775 67.2219 207.85C67.4394 215.776 67.6544 218.629 67.8189 221.109C67.574 221.193 67.4108 221.249 66.6821 220.915C66.7193 219.926 66.3745 208.531 66.2484 207.599ZM68.139 208.315C68.3275 208.445 68.4091 208.417 68.5975 208.547C68.7057 211.242 68.7826 214.338 69.2941 220.016C69.156 220.259 68.8548 220.557 68.6915 220.614C68.5714 219.094 68.3877 215.84 68.139 208.315ZM73.8873 288.101C74.083 290.18 74.2091 291.112 74.801 294.226C74.6941 294.068 74.6125 294.096 74.5873 293.909C74.3292 292.632 74.1527 291.327 73.8946 290.05C73.9066 288.875 73.7373 289.518 73.8873 288.101ZM76.6975 294.354C76.2245 290.224 76.0732 289.105 75.7646 287.455C76.9458 288.609 77.8018 292.413 76.6975 294.354ZM74.9544 287.148C75.1561 288.64 75.2437 288.024 76.0385 295.166C75.8753 295.222 75.7685 295.064 75.6052 295.12C75.0386 292.193 74.736 289.955 74.4647 287.317C74.9292 286.962 74.7659 287.018 74.9544 287.148ZM83.6129 259.581C83.8266 259.898 84.0403 260.215 84.2539 260.532C84.2227 260.933 84.1663 261.147 84.1351 261.548C83.6574 260.542 83.6069 260.169 83.6129 259.581ZM84.6728 256.68C84.4591 256.363 84.2454 256.046 84.0569 255.916C84.195 255.673 84.5971 256.12 84.7039 256.279C84.6475 256.493 84.6728 256.68 84.6728 256.68ZM83.6117 257.045C84.039 257.678 84.039 257.678 84.4411 258.126C84.3847 258.34 84.4351 258.713 84.3787 258.928C84.2719 258.769 83.6561 258.005 83.5493 257.847C83.6057 257.632 83.5805 257.446 83.6117 257.045ZM84.8851 254.46C82.7425 251.88 81.804 258.838 83.5014 262.547C83.6334 262.892 83.7403 263.05 83.8723 263.395C81.3415 288.268 79.7731 303.833 77.5261 306.168C76.747 305.46 75.3808 298.515 75.0723 296.865C76.3603 298.178 77.5402 296.796 78.0287 294.091C78.1727 293.261 78.1595 291.9 77.983 290.594C77.7813 289.103 77.0958 287.192 76.348 286.083C75.5185 285.003 74.1117 284.706 73.4215 285.919C73.2271 286.376 73.2523 286.563 73.1959 286.777C71.5524 277.781 67.0132 254.95 60.231 204.791C61.0665 205.284 61.7951 205.619 62.6306 206.112C59.6348 218.071 68.5274 231.403 71.3851 219.687C71.8111 217.784 72.0235 215.564 71.8842 213.271C71.8962 212.096 71.7197 210.79 71.5432 209.485C75.3808 210.702 80.1222 211.022 83.89 211.091C83.2456 215.801 86.2887 223.145 88.6485 220.382C86.5399 235.743 87.5553 231.881 84.8851 254.46ZM130.84 265.188C130.896 264.973 130.978 264.945 131.034 264.731C130.978 264.945 131.003 265.132 130.946 265.346C130.946 265.346 130.946 265.346 130.84 265.188ZM134.224 239.046C134.335 236.08 134.297 234.532 134.891 229.449C134.885 230.037 135.058 237.002 135.215 237.534C135.479 238.223 135.969 238.055 136.012 236.479C135.999 235.117 135.972 232.395 136.004 231.993C136.023 232.767 136.189 237.784 136.346 238.315C135.831 238.297 135.285 238.68 134.224 239.046ZM119.879 247.299C119.797 247.327 119.797 247.327 119.879 247.299C120.13 246.627 121.42 239.743 121.645 238.885C121.283 242.522 121.408 240.918 121.014 244.957C120.518 245.712 120.186 246.412 119.879 247.299ZM124.198 233.128C124.795 233.118 125.391 233.108 125.963 232.911C125.743 233.182 125.656 233.798 125.486 234.441C124.946 234.237 124.827 235.253 124.044 237.67C124.194 236.252 124.168 236.066 124.206 235.077C124.212 234.49 123.866 233.828 123.565 234.127C123.207 234.64 122.693 237.159 122.468 238.017C122.505 237.028 122.886 234.165 122.76 233.233C124.77 232.932 124.443 233.044 124.198 233.128ZM136.086 221.232C136.111 221.419 136.162 221.792 136.187 221.978C136.074 222.407 136.119 223.368 136.113 223.955C135.528 222.79 135.429 224.581 135.278 225.999C135.203 225.439 134.989 225.122 134.826 225.179C135.353 224.022 135.604 223.35 136.086 221.232ZM134.023 226.821C134.079 226.606 134.217 226.364 134.299 226.336C134.268 226.737 134.124 227.567 134.118 228.154C134.149 227.753 134.073 227.194 134.023 226.821ZM130.817 232.802C130.553 232.113 130.038 232.095 129.894 232.925C129.605 232.049 129.008 232.059 128.782 232.917C128.532 233.589 128.388 234.419 128.137 235.091C127.935 233.599 127.344 233.021 126.956 233.936C126.773 233.218 126.748 233.032 126.534 232.715C127.187 232.49 130.069 231.694 132.511 228.902C132.423 229.518 132.392 229.919 132.304 230.534C131.613 229.211 131.08 230.956 130.817 232.802ZM120.841 237.991C121.071 234.009 120.304 232.126 118.355 239.822C118.379 237.472 118.428 235.309 117.674 234.787C118.139 234.432 120.644 233.375 121.812 233.169C121.58 234.614 120.954 237.562 120.841 237.991ZM115.855 237.755C116.08 236.897 116.714 235.898 117.154 235.357C116.897 236.616 116.715 238.435 116.647 239.824C116.383 239.135 116.119 238.445 115.855 237.755ZM120.031 237.684C119.863 240.864 119.343 243.97 119.162 245.789C118.923 245.286 118.659 244.596 118.42 244.093C118.796 241.817 119.36 239.671 120.031 237.684ZM122.902 240.599C122.752 242.017 122.752 242.017 122.639 242.446C122.558 242.474 122.558 242.474 122.501 242.689C122.589 242.073 122.733 241.243 122.902 240.599ZM125.212 237.463C125.149 238.265 125.213 239.999 125.395 240.717C124.767 241.128 124.441 241.241 124.058 241.568C124.064 240.98 124.961 238.135 125.212 237.463ZM126.003 236.996C126.065 236.194 126.153 235.578 126.322 234.934C126.347 235.121 126.366 235.895 126.36 236.482C126.16 237.527 125.979 239.346 126.35 240.194C126.268 240.222 126.105 240.278 126.023 240.306C126.111 239.69 125.971 237.397 126.003 236.996ZM127.196 236.975C127.308 236.546 127.34 236.145 127.453 235.716C127.724 238.355 127.454 238.253 127.442 239.428C127.279 239.484 127.197 239.512 127.034 239.568C127.228 239.111 127.215 237.749 127.196 236.975ZM129.417 234.455C129.468 234.828 129.518 235.201 129.538 235.975C129.419 236.991 129.325 238.194 129.395 239.341C128.88 239.323 128.61 239.221 128.365 239.305C128.352 237.944 129.079 235.742 129.417 234.455ZM130.291 236.496C130.348 236.281 130.323 236.095 130.379 235.88C130.474 237.214 130.399 239.191 130.914 239.208C131.455 239.413 131.253 237.921 131.327 235.944C131.421 234.741 131.571 233.324 131.853 232.251C132.029 233.556 131.956 238.069 131.97 239.431C130.965 239.581 131.291 239.469 130.261 239.433C130.293 239.032 130.311 237.27 130.291 236.496ZM132.84 233.863C132.964 232.259 133.002 231.27 133.377 228.994C133.396 229.768 133.307 238.581 133.571 239.27C133.326 239.354 133.081 239.439 132.755 239.551C132.74 235.653 132.902 233.061 132.84 233.863ZM136.924 226.798C136.975 227.171 137.025 227.544 136.994 227.945C136.899 226.612 137.228 231.572 137.373 233.279C137.393 234.052 137.361 234.453 137.707 235.115C137.839 235.46 138.084 235.376 138.197 234.947C138.222 235.133 138.247 235.32 138.272 235.506C138.103 236.15 137.199 237.046 136.98 237.317C137.067 236.701 136.918 227.386 136.924 226.798ZM141.901 257.284C141.794 257.126 141.605 256.996 141.442 257.052C141.473 256.651 141.479 256.063 141.347 255.718C141.429 255.69 141.485 255.476 141.567 255.448C141.724 255.979 141.8 256.538 141.901 257.284ZM138.397 257.904C138.56 257.848 138.723 257.792 138.943 257.521C138.805 257.764 138.667 258.007 138.554 258.436C138.529 258.249 138.504 258.063 138.397 257.904ZM136.445 260.527C136.451 259.94 136.457 259.352 136.3 258.821C136.927 258.41 136.683 258.494 137.336 258.269C137.028 259.156 136.696 259.856 136.445 260.527ZM134.675 261.332C134.134 261.127 133.689 262.256 133.382 263.142C133.306 262.583 133.312 261.995 133.155 261.464C134.115 260.353 134.335 260.082 135.126 259.615C134.931 260.072 134.844 260.688 134.675 261.332ZM135.623 261.396C135.592 261.797 135.41 263.615 135.298 264.044C135.329 263.643 135.278 263.27 135.31 262.869C135.341 262.468 135.454 262.039 135.623 261.396ZM134.915 264.371C134.915 264.371 134.94 264.558 134.915 264.371V264.371ZM132.058 265.354C132.001 265.569 131.889 265.998 131.832 266.212C131.869 265.224 132.013 264.394 132.239 263.536C132.183 263.75 132.007 264.981 132.058 265.354ZM133.377 266.266C133.603 265.408 133.797 264.951 134.13 264.251C133.785 266.126 133.798 267.487 133.755 269.063C133.648 268.905 133.46 268.775 133.353 268.616C133.309 267.656 133.34 267.255 133.377 266.266ZM137.776 260.264C137.162 262.037 136.02 264.967 136.404 267.176C136.103 267.475 135.965 267.717 135.582 268.044C136.02 264.966 135.807 264.65 137.776 260.264ZM139.898 259.534C140.093 259.077 140.206 258.648 140.482 258.163C140.1 261.026 138.99 263.554 139.574 264.719C139.33 264.804 139.11 265.074 138.947 265.13C139.429 263.013 139.774 261.138 139.898 259.534ZM139.652 257.082L139.734 257.054C139.734 257.054 139.734 257.054 139.652 257.082ZM141.556 259.159C141.6 260.119 141.439 262.712 141.646 263.616C141.075 263.813 140.912 263.869 140.365 264.252C140.792 262.349 140.44 262.275 141.556 259.159ZM142.36 260.053C142.467 260.212 142.467 260.212 142.492 260.398C142.675 261.116 142.801 262.048 142.983 262.766C142.6 263.093 142.519 263.121 142.437 263.149C142.412 262.962 142.329 260.454 142.36 260.053ZM131.272 188.154C131.499 189.832 132.255 195.426 132.482 197.104C129.697 204.307 124.984 209.246 120.778 212.254C120.778 212.254 120.56 204.328 120.61 202.165C121.989 210.472 121.688 210.77 122.366 210.732C122.774 210.592 122.572 209.1 122.452 207.58C121.96 202.676 121.89 201.529 121.833 199.207C122.374 201.948 122.904 205.864 123.282 208.661C123.433 209.78 124.168 209.527 124.016 208.408C123.795 206.142 123.316 202.599 123.082 198.972C123.391 200.623 124.524 206.477 124.524 206.477C124.889 207.913 125.435 207.53 125.391 206.569C125.176 203.716 124.59 200.015 124.237 197.404C124.759 199.371 125.609 203.762 125.76 204.881C125.937 206.186 126.395 206.419 126.59 205.961C126.866 205.476 126.21 200.628 126.084 199.696C125.883 198.204 125.763 196.684 125.617 194.978C125.567 194.605 125.623 194.39 125.573 194.018C126.315 195.714 126.875 199.228 126.642 198.138L126.668 198.324C127.108 200.319 127.348 203.359 127.92 203.162C128.654 202.909 127.654 199.936 127.143 194.258C127.218 194.817 127.168 194.444 127.092 193.885C127.615 195.852 127.861 198.304 128.138 200.355C128.214 200.914 128.34 201.847 128.553 202.164C128.874 202.639 129.232 202.125 129.131 201.379C128.809 198.368 128.432 198.107 128.342 193.65C129.262 199.188 129.15 202.153 129.885 201.901C130.538 201.676 129.997 201.472 129.968 193.676C130.321 196.286 130.303 198.049 130.9 198.039C131.333 198.085 131.371 197.096 131.326 196.136C131.301 195.949 131.276 195.763 131.25 195.577C131.647 196.611 132.255 195.426 131.859 194.391C131.708 193.273 131.122 189.571 130.864 188.294C130.945 188.266 131.109 188.21 131.272 188.154ZM108.785 215.795C108.582 211.767 108.894 207.757 109.338 204.091C109.439 204.837 109.49 205.21 109.559 206.357C109.094 217.445 111.406 219.382 110.344 206.477C110.376 206.076 110.382 205.489 110.413 205.088C110.867 208.444 110.641 209.302 110.693 212.212C110.731 213.76 110.952 216.025 111.473 215.456C111.831 214.942 111.724 214.784 111.685 213.236C111.564 209.18 111.451 209.609 111.656 205.44C111.687 205.039 111.662 204.853 111.693 204.452L112.804 215.193C110.77 215.307 110.148 215.131 108.785 215.795ZM106.94 205.307C106.971 204.906 106.971 204.906 107.028 204.691C107.367 205.94 107.507 208.234 107.658 209.353L107.683 209.539C107.683 209.539 107.829 211.246 108.076 216.234C107.994 216.262 107.994 216.262 107.913 216.29C107.781 215.946 107.755 215.759 107.623 215.414C107.61 214.053 107.47 209.223 106.94 205.307ZM107.844 204.411C108.089 204.326 108.334 204.242 108.553 203.971C108.435 204.988 108.316 206.004 108.222 207.207C108.178 206.247 108.077 205.501 107.844 204.411ZM106.781 212.972C106.674 212.814 106.649 212.627 106.598 212.254C106.529 211.108 106.541 209.933 106.578 208.944C106.641 210.678 106.711 211.825 106.781 212.972ZM110.788 202.812C110.87 202.784 111.033 202.728 111.115 202.7C111.058 202.914 111.052 203.502 110.996 203.716C110.814 202.998 110.814 202.998 110.788 202.812ZM117.908 198.606C117.933 198.793 117.876 199.007 117.876 199.007C117.876 199.007 117.851 198.821 117.908 198.606ZM115.147 203.459C115.046 202.713 114.87 201.408 114.687 200.69C115.014 200.578 115.233 200.307 115.56 200.195C115.441 201.211 115.24 202.256 115.147 203.459ZM113.357 203.489C113.458 204.235 114.147 213.755 114.355 214.659C113.702 214.884 114.192 214.715 113.62 214.912C113.417 210.884 113.409 206.399 113.357 203.489ZM114.544 204.057C115.017 208.187 115.081 209.921 115.352 212.56C115.478 213.492 116.075 213.482 116.056 212.708C116.062 212.121 116.011 211.748 115.936 211.188C115.538 207.617 115.675 204.838 116.144 201.36C116.844 207.168 116.59 213.5 117.494 212.604C117.795 212.305 117.694 211.559 117.593 210.813C117.41 207.559 117.353 207.773 117.307 204.277C117.319 203.102 117.337 201.339 117.318 200.565C117.785 205.283 118.304 212.91 118.706 213.357C117.589 213.937 116.151 214.041 115.064 214.22C115.051 212.859 114.428 210.146 114.544 204.057ZM116.652 199.429C116.652 199.429 116.677 199.615 116.652 199.429C116.652 199.429 116.677 199.615 116.652 199.429ZM118.81 208.443C118.69 206.923 118.475 204.07 118.574 199.743C118.801 201.421 119.723 212.032 119.987 212.722C119.905 212.75 119.905 212.75 119.987 212.722C119.686 213.02 119.359 213.133 119.114 213.217C119.252 212.974 118.861 208.816 118.81 208.443ZM121.787 208.98C122.749 223.675 121.787 208.98 121.787 208.98V208.98ZM121.837 196.083C122.001 196.027 122.082 195.999 122.22 195.756C122.164 195.971 122.234 197.118 122.259 197.304C122.152 197.146 121.969 196.428 121.837 196.083ZM122.93 195.317C123.011 195.289 123.093 195.261 123.093 195.261C123.143 195.634 123.169 195.82 123.219 196.193C123.169 195.82 123.062 195.662 122.93 195.317ZM125.936 192.917C126.018 192.889 126.156 192.646 126.238 192.618C126.207 193.019 126.257 193.392 126.307 193.765C126.175 193.42 126.043 193.075 125.936 192.917ZM127.142 191.721C127.305 191.665 127.361 191.451 127.524 191.395C127.468 191.609 127.462 192.197 127.431 192.598C127.38 192.225 127.355 192.038 127.142 191.721ZM129.138 190.059C129.132 190.646 129.108 192.996 129.102 193.584C128.976 192.652 128.692 191.188 128.29 190.741C128.592 190.442 128.918 190.33 129.138 190.059ZM124.625 193.954C124.619 194.541 124.644 194.727 124.789 196.434C124.581 195.529 124.424 194.998 124.242 194.28C124.405 194.224 124.568 194.168 124.625 193.954ZM120.99 196.765C120.953 197.754 121.092 200.047 121.137 201.008C121.01 200.075 120.62 198.453 120.212 198.594C119.804 198.734 119.862 201.056 119.9 202.604C119.888 203.779 119.863 203.593 119.876 204.954C119.409 200.236 119.39 199.462 119.025 198.027C119.653 197.616 120.362 197.176 120.99 196.765ZM112.697 201.765C112.634 202.567 112.642 204.516 112.661 205.29C112.459 203.798 112.415 202.838 112.126 201.962C112.151 202.148 112.615 201.793 112.697 201.765ZM104.466 205.963C105.038 205.766 105.584 205.383 106.073 205.215C105.867 206.847 105.692 208.078 105.674 209.841C105.309 208.405 104.888 207.184 104.466 205.963ZM108.806 219.105C108.944 218.863 108.919 218.676 108.893 218.49C111.21 217.302 123.527 221.846 132.98 201.421C134.02 208.479 134.329 210.129 135.475 217.345C134.712 223.071 131.775 226.619 129.207 228.478C124.568 231.44 117.427 229.799 115.163 236.432C112.919 230.57 112.233 228.659 108.806 219.105ZM120.514 248.836C120.984 247.894 120.928 248.108 121.179 247.437C121.556 247.697 121.643 247.082 121.812 246.438C126.638 238.533 133.549 246.693 138.89 238.806C140.112 246.582 140.414 248.819 141.082 252.492C138.113 256.441 132.694 256.159 130.01 264.107C125.624 258.201 123.858 255.882 120.514 248.836ZM146.49 280.488C144.286 281.246 137.023 273.013 135.603 271.355C135.496 271.196 135.389 271.038 135.282 270.88C138.935 266.305 142.081 266.199 143.474 265.134C145.099 273.356 146.696 278.856 146.49 280.488ZM176.484 133.375C176.427 133.589 176.346 133.617 176.208 133.86C176.214 133.273 176.22 132.685 176.226 132.098C176.408 132.815 176.484 133.375 176.484 133.375ZM174.695 135.941C174.567 129.936 174.622 127.185 174.582 123.101C175.098 125.656 174.916 124.938 175.432 127.492C175.433 130.028 175.435 132.565 175.436 135.101C174.997 135.643 175.135 135.4 174.695 135.941ZM173.695 119.699C173.918 127.037 173.706 129.257 173.898 136.996C173.597 137.295 173.239 137.808 172.938 138.107C173.173 131.001 173.292 129.985 173.274 118.478C173.406 118.823 173.563 119.354 173.695 119.699ZM176.27 157.06C176.899 159.186 177.188 160.062 177.477 160.938C177.032 162.067 176.674 162.58 176.097 163.364C176.228 161.173 176.226 158.636 176.27 157.06ZM175.368 163.03C175.399 162.629 175.224 163.86 175.463 164.363C175.244 164.634 174.942 164.932 174.748 165.39C174.846 161.063 174.809 162.051 174.798 152.493C175.087 153.369 175.27 154.087 175.559 154.963C175.559 154.963 175.399 162.629 175.368 163.03ZM171.816 192.352C172.139 184.63 172.207 183.241 172.331 179.101C172.62 179.977 172.853 181.067 173.142 181.944C173.112 184.881 173.108 188.005 172.996 190.97C172.638 191.484 172.362 191.969 172.005 192.482C171.923 192.51 171.841 192.538 171.816 192.352ZM173.822 184.442C174.111 185.318 174.136 185.504 174.979 187.946C174.979 187.946 173.793 189.916 173.711 189.944C173.822 184.442 173.749 188.955 173.822 184.442ZM173.018 146.276C173.357 147.525 173.672 148.587 174.012 149.837C174.048 159.581 173.987 162.92 173.869 166.472C172.576 168.283 173.072 167.527 172.658 168.255C173.253 152.439 172.857 151.405 173.018 146.276ZM172.645 116.352C172.632 128.26 172.223 139.134 172.223 139.134C171.614 140.319 171.816 141.811 172.338 143.778C172.244 144.981 172.24 148.104 172.228 149.279C172.205 154.166 172.425 153.895 171.805 169.524C170.562 171.708 170.764 173.2 171.676 176.789L171.037 191.644C170.635 191.197 170.233 190.75 169.856 190.49C170.086 186.508 170.312 185.649 169.885 185.016C170.788 184.119 170.078 182.022 169.449 179.897C169.612 179.841 169.668 179.626 169.618 179.253C169.602 172.819 169.852 169.611 169.895 168.035C169.895 168.035 170.032 165.256 170.162 163.064C171.593 161.011 173.068 159.918 171.006 154.773C171.012 154.186 171.409 131.218 171.251 130.687C171.998 129.259 172.28 128.186 171.362 125.185C171.362 125.185 171.285 122.089 171.563 113.407C171.72 113.939 172.513 116.008 172.645 116.352ZM168.354 188.86C168.417 188.058 168.617 187.013 168.297 186.538C168.679 186.211 169.037 185.698 169.42 185.371C169.352 186.76 169.283 188.15 169.215 189.539C168.863 189.465 168.568 189.176 168.354 188.86ZM167.091 187.733C167.556 187.378 167.556 187.378 167.694 187.135C167.663 187.537 167.632 187.938 167.6 188.339C167.468 187.994 167.28 187.863 167.091 187.733ZM168.952 178.117C168.744 177.212 168.455 176.336 168.272 175.618C168.365 171.879 168.42 169.128 168.7 165.519C169.058 165.006 168.7 165.519 169.472 164.278C169.279 167.271 169.018 171.654 168.952 178.117ZM167.536 173.335C167.197 172.086 166.668 170.706 166.41 169.429C166.492 169.401 167.709 167.031 167.765 166.816C167.66 169.194 167.617 170.77 167.536 173.335ZM168.666 147.578C168.534 147.233 168.327 146.329 168.195 145.984C168.18 142.086 168.26 139.522 168.341 136.957C168.617 136.472 168.893 135.987 169.144 135.315C168.701 141.516 168.615 144.668 168.666 147.578ZM167.459 143.7C167.144 142.638 166.566 140.885 166.566 140.885C166.735 140.242 167.343 139.056 167.538 138.599C167.52 140.362 167.432 140.977 167.459 143.7ZM169.859 134.288C169.834 134.102 169.834 134.102 169.809 133.915C170.06 133.243 170.417 132.73 170.668 132.058C170.368 148.163 170.757 133.979 170.321 152.863C169.503 150.607 169.792 151.483 169.371 150.262C169.391 140.303 169.859 134.288 169.859 134.288ZM170.415 127.657C170.415 127.657 170.44 127.844 170.415 127.657C170.415 127.657 170.44 127.844 170.415 127.657ZM170.568 157.851C170.568 157.851 170.593 158.038 170.568 157.851C170.512 158.066 170.512 158.066 170.568 157.851C170.593 158.038 170.568 157.851 170.568 157.851ZM170.723 116.038C170.699 118.388 170.631 119.777 170.575 122.528C169.865 120.431 170.179 121.494 169.626 119.928C170.046 118.613 170.41 117.512 170.723 116.038ZM160.733 143.868C160.931 151.02 160.871 167.627 160.042 179.816L159.533 179.211C159.948 167.75 160.261 166.276 160.206 145.025C160.652 143.896 160.482 144.539 160.733 143.868ZM158.678 177.944C158.736 169.533 159.105 165.308 159.096 147.553C159.234 147.311 159.428 146.853 159.566 146.611C159.539 167.89 158.892 178.261 158.892 178.261C158.785 178.102 158.678 177.944 158.678 177.944ZM157.314 176.071C157.683 171.847 157.887 154.409 157.879 149.923C158.017 149.681 158.211 149.224 158.349 148.981C158.38 159.313 157.955 177.022 157.955 177.022C157.742 176.705 157.528 176.388 157.314 176.071ZM149.766 163.838C152.163 160.086 154.34 156.605 156.718 152.079C156.633 157.767 156.537 167.167 156.164 174.516C152.984 169.951 151.52 167.332 149.766 163.838ZM161.059 181.027C161.776 169.267 161.957 154.179 161.593 142.011C164.56 135.526 166.554 131.327 168.892 122.717C169.182 123.593 170.075 126.408 170.308 127.499C169.423 129.169 167.059 135.056 166.557 136.4C164.663 141.345 165.159 140.589 166.36 145.054C167.587 149.705 167.795 150.61 168.556 153.08C168.575 153.854 168.651 154.413 168.977 154.301C169.135 154.832 170.216 157.777 170.292 158.337C169.878 159.064 167.337 163.646 167.45 163.217C163.773 170.141 164.771 168.042 168.741 182.873C168.138 183.47 166.651 185.738 165.533 186.318C162.505 182.872 162.373 182.527 161.059 181.027ZM183.775 160.137C183.876 160.883 184.034 161.414 184.134 162.16C183.779 167.746 183.062 176.969 182.845 182.313C182.813 182.714 182.721 186.453 182.671 186.08C182.696 186.267 182.614 186.295 182.696 186.267C182.69 186.854 182.596 188.057 182.602 187.47C182.434 190.65 181.618 204.2 181.494 205.804L181.387 205.646C181.669 204.573 183.24 170.078 183.775 160.137ZM186.999 176.395C186.231 185.246 184.849 209.138 184.831 210.901C184.699 210.556 184.51 210.425 184.378 210.081C184.453 208.104 184.502 205.94 184.576 203.963C184.445 206.155 186.294 173.711 186.306 172.536C186.483 173.841 186.741 175.118 186.999 176.395ZM183.203 208.338C183.285 208.31 185.501 169.105 185.475 168.919C185.501 169.105 185.501 169.105 185.526 169.292L183.727 202.109C183.708 201.335 183.504 208.04 183.442 208.842C183.417 208.655 183.31 208.497 183.203 208.338ZM182.216 206.727C183.774 181.603 183.648 180.671 183.648 180.671C183.648 180.671 183.648 180.671 183.622 180.484C183.648 180.671 184.321 170.487 184.676 164.901C184.701 165.087 184.726 165.274 184.777 165.647C182.916 199.266 182.478 202.343 182.455 207.23C182.43 207.043 182.323 206.885 182.216 206.727ZM193.729 223.645C193.729 223.645 193.811 223.617 193.729 223.645C193.729 223.645 193.811 223.617 193.729 223.645ZM193.729 223.645C192.573 222.677 186.433 213.276 185.579 212.009C185.832 203.141 187.441 180.927 187.54 179.136C188.926 186.855 193.826 216.782 193.729 223.645ZM183.133 156.65C183.096 157.639 182.99 160.017 183.028 159.028L180.67 204.136C179.017 201.388 175.517 196.347 173.638 194.457C177.378 189.267 177.165 188.951 176.033 185.632C174.347 180.748 172.755 174.661 172.554 173.17C173.582 170.669 177.392 166.626 178.584 164.07C179.889 161.084 179.236 161.309 176.191 151.428C175.877 150.366 173.568 142.769 173.392 141.464C174.634 139.28 177.981 138.128 177.891 133.671C178.677 136.328 179.382 139.012 180.005 141.725C180.622 145.025 183.194 153.312 183.133 156.65ZM172.647 20.3427C172.914 15.3721 173.639 8.09772 175.352 4.97158C177.661 1.83531 182.333 14.2779 178.773 39.115C176.701 53.4875 175.61 56.79 174.596 63.1883C173.802 45.3134 172.066 40.0564 172.647 20.3427ZM172.813 75.9006L172.787 75.7141C172.787 75.7141 172.787 75.7141 172.813 75.9006ZM171.37 65.8595C167.598 58.1808 159.851 38.7952 158.059 33.7528C156.745 29.7168 155.329 24.935 154.888 20.4037C154.704 17.1495 155.174 16.2071 156.651 17.6505C163.588 25.9964 168.548 50.0482 171.37 65.8595Z" fill="#EFE2DA"/>
</svg>
