<svg width="21" height="132" viewBox="0 0 21 132" fill="none" xmlns="http://www.w3.org/2000/svg">
<path d="M20.8465 39.9553C20.1106 40.2817 19.3198 40.5022 18.4898 40.6014C19.337 40.0936 19.9876 39.2895 20.294 38.3313C19.5012 38.8015 18.623 39.143 17.6884 39.3271C16.9398 38.5296 15.8735 38.0312 14.6933 38.0312C12.4272 38.0312 10.5899 39.8684 10.5899 42.1344C10.5899 42.456 10.6263 42.7692 10.6962 43.0695C7.28602 42.8984 4.26257 41.2648 2.23879 38.7823C1.8856 39.3884 1.68325 40.0932 1.68325 40.8452C1.68325 42.2687 2.40771 43.5246 3.5087 44.2604C2.83604 44.2392 2.20339 44.0546 1.65011 43.7473C1.64982 43.7644 1.64982 43.7816 1.64982 43.7988C1.64982 45.7869 3.06421 47.4453 4.94131 47.8222C4.59696 47.916 4.23448 47.9661 3.86021 47.9661C3.59583 47.9661 3.33876 47.9405 3.08828 47.8925C3.61039 49.5227 5.12573 50.709 6.92126 50.7422C5.51697 51.8427 3.7477 52.4986 1.82532 52.4986C1.49414 52.4986 1.1675 52.4793 0.846497 52.4414C2.66236 53.6056 4.81921 54.2848 7.13641 54.2848C14.6837 54.2848 18.8109 48.0324 18.8109 42.6102C18.8109 42.4323 18.8069 42.2553 18.799 42.0794C19.6007 41.5009 20.2964 40.7782 20.8465 39.9553Z" fill="#55ACEE"/>
<path d="M10.8466 73.9668C5.32441 73.9668 0.846497 78.4439 0.846497 83.9669C0.846497 88.3852 3.71182 92.1336 7.68516 93.4559C8.18494 93.5485 8.36842 93.239 8.36842 92.9749C8.36842 92.7364 8.35914 91.9487 8.35484 91.1131C5.57281 91.718 4.98576 89.9332 4.98576 89.9332C4.53087 88.7773 3.87543 88.47 3.87543 88.47C2.96813 87.8493 3.94383 87.8621 3.94383 87.8621C4.94801 87.9326 5.47676 88.8926 5.47676 88.8926C6.36867 90.4214 7.81615 89.9794 8.3868 89.7239C8.47655 89.0775 8.73571 88.6364 9.0217 88.3867C6.80054 88.1338 4.46562 87.2763 4.46562 83.4446C4.46562 82.3528 4.85627 81.4607 5.49597 80.7604C5.39214 80.5085 5.04985 79.4915 5.59284 78.114C5.59284 78.114 6.43259 77.8452 8.34358 79.1391C9.14126 78.9175 9.99673 78.8064 10.8466 78.8026C11.6964 78.8064 12.5526 78.9175 13.3517 79.1391C15.2604 77.8452 16.099 78.114 16.099 78.114C16.6433 79.4915 16.3009 80.5085 16.197 80.7604C16.8382 81.4607 17.2262 82.3528 17.2262 83.4446C17.2262 87.2854 14.8868 88.1312 12.66 88.3787C13.0187 88.689 13.3383 89.2976 13.3383 90.2306C13.3383 91.5686 13.3267 92.6455 13.3267 92.9749C13.3267 93.241 13.5067 93.5528 14.0136 93.4546C17.9848 92.1308 20.8465 88.3837 20.8465 83.9669C20.8465 78.4439 16.3692 73.9668 10.8466 73.9668ZM4.59185 88.2121C4.56983 88.2618 4.49167 88.2767 4.42046 88.2426C4.34793 88.21 4.30719 88.1422 4.33071 88.0924C4.35223 88.0412 4.43056 88.027 4.50293 88.0613C4.57562 88.0939 4.61702 88.1623 4.59185 88.2121ZM5.08375 88.651C5.03605 88.6952 4.94282 88.6747 4.87956 88.6048C4.81415 88.5351 4.8019 88.4419 4.85025 88.397C4.89944 88.3528 4.98985 88.3735 5.05543 88.4432C5.12084 88.5138 5.13359 88.6063 5.08375 88.651ZM5.4212 89.2126C5.35993 89.2552 5.25975 89.2153 5.19781 89.1263C5.13654 89.0374 5.13654 88.9308 5.19914 88.888C5.26124 88.8453 5.35993 88.8837 5.42269 88.972C5.4838 89.0624 5.4838 89.1691 5.4212 89.2126ZM5.99192 89.863C5.9371 89.9234 5.82036 89.9072 5.73491 89.8247C5.64747 89.7441 5.62313 89.6297 5.67811 89.5692C5.73358 89.5086 5.85099 89.5257 5.9371 89.6075C6.02388 89.6879 6.05037 89.8032 5.99192 89.863ZM6.72951 90.0825C6.70533 90.1609 6.59289 90.1965 6.47962 90.1632C6.36652 90.1289 6.29249 90.0372 6.31535 89.958C6.33886 89.8792 6.4518 89.8421 6.5659 89.8777C6.67883 89.9118 6.75302 90.0029 6.72951 90.0825ZM7.56891 90.1757C7.57173 90.2581 7.47568 90.3265 7.35678 90.328C7.23722 90.3307 7.14051 90.2639 7.13919 90.1828C7.13919 90.0995 7.23308 90.0318 7.35264 90.0298C7.47154 90.0275 7.56891 90.0937 7.56891 90.1757ZM8.39354 90.1441C8.40778 90.2245 8.32515 90.3072 8.20708 90.3292C8.09099 90.3504 7.98352 90.3007 7.96878 90.2209C7.95438 90.1384 8.0385 90.0558 8.15442 90.0344C8.27265 90.0139 8.37847 90.0623 8.39354 90.1441Z" fill="#161614"/>
<path d="M10.8469 112.631C16.0031 112.631 20.175 116.803 20.175 121.951C20.175 127.1 16.0031 131.279 10.8469 131.279C5.69061 131.279 1.51874 127.107 1.51874 121.959C1.51874 116.811 5.69061 112.631 10.8469 112.631Z" fill="#E74D89"/>
<path d="M10.8465 131.943C5.33087 131.943 0.846497 127.467 0.846497 121.959C0.846497 116.443 5.33087 111.967 10.8465 111.967C16.3621 111.967 20.8465 116.443 20.8465 121.951C20.8465 127.459 16.3621 131.943 10.8465 131.943ZM19.2762 123.318C18.9871 123.225 16.6356 122.529 13.9559 122.951C15.0731 126.014 15.5262 128.514 15.6121 129.029C17.534 127.74 18.9012 125.693 19.2762 123.318ZM14.1824 129.818C14.0574 129.068 13.5574 126.459 12.3621 123.35C12.3465 123.357 12.3231 123.365 12.3074 123.365C7.48712 125.045 5.76056 128.381 5.60431 128.693C7.04962 129.818 8.86993 130.49 10.8465 130.49C12.0262 130.498 13.159 130.256 14.1824 129.818ZM4.50275 127.67C4.69806 127.342 7.04181 123.467 11.4481 122.037C11.5574 121.998 11.6746 121.967 11.784 121.936C11.5731 121.451 11.3387 120.967 11.0887 120.49C6.82306 121.764 2.68243 121.709 2.30743 121.701C2.30743 121.787 2.29962 121.873 2.29962 121.959C2.30743 124.154 3.13556 126.154 4.50275 127.67ZM2.48712 120.217C2.86993 120.225 6.38556 120.24 10.3856 119.178C8.9715 116.662 7.44025 114.553 7.2215 114.248C4.82306 115.373 3.04181 117.576 2.48712 120.217ZM8.8465 113.67C9.08087 113.982 10.6356 116.092 12.034 118.662C15.0731 117.521 16.3543 115.803 16.5106 115.584C15.0027 114.248 13.0184 113.436 10.8465 113.436C10.159 113.436 9.48712 113.521 8.8465 113.67ZM17.4559 116.568C17.2762 116.811 15.8465 118.646 12.6902 119.936C12.8856 120.342 13.0809 120.756 13.2606 121.17C13.3231 121.318 13.3856 121.467 13.4481 121.607C16.2918 121.248 19.1121 121.826 19.3934 121.881C19.3699 119.873 18.6512 118.021 17.4559 116.568Z" fill="#B2215A"/>
<path d="M10.8465 20.0312C16.3693 20.0312 20.8465 15.5541 20.8465 10.0312C20.8465 4.5084 16.3693 0.03125 10.8465 0.03125C5.32365 0.03125 0.846497 4.5084 0.846497 10.0312C0.846497 15.5541 5.32365 20.0312 10.8465 20.0312Z" fill="#3B5998"/>
<path d="M13.3601 10.4226H11.5757V16.9597H8.87221V10.4226H7.58643V8.12517H8.87221V6.63849C8.87221 5.57535 9.37722 3.91058 11.5998 3.91058L13.6023 3.91896V6.14899H12.1493C11.911 6.14899 11.5759 6.26806 11.5759 6.77521V8.12731H13.5963L13.3601 10.4226Z" fill="white"/>
</svg>
